<?xml version="1.0" standalone="no"?>
<!DOCTYPE svg PUBLIC "-//W3C//DTD SVG 20010904//EN"
 "http://www.w3.org/TR/2001/REC-SVG-20010904/DTD/svg10.dtd">
<svg version="1.0" xmlns="http://www.w3.org/2000/svg"
 width="300.000000pt" height="300.000000pt" viewBox="0 0 300.000000 300.000000"
 preserveAspectRatio="xMidYMid meet">

<g transform="translate(0.000000,300.000000) scale(0.100000,-0.100000)"
fill="#000000" stroke="none">
<path d="M1539 2940 c-12 -30 -32 -85 -46 -122 l-25 -68 -59 -1 c-33 -1 -64
-2 -71 -3 -10 -1 -126 180 -140 217 -2 4 -48 -5 -103 -21 l-100 -28 3 -131 4
-131 -72 -36 c-39 -20 -76 -33 -83 -30 -7 4 -54 39 -105 77 l-93 69 -52 -41
c-121 -94 -112 -83 -95 -127 9 -21 32 -74 52 -117 l37 -79 -43 -53 c-24 -30
-48 -54 -54 -55 -6 0 -64 14 -128 31 -65 17 -119 29 -120 27 -15 -20 -96 -169
-96 -176 0 -5 41 -48 90 -96 l90 -87 -21 -72 c-12 -40 -23 -74 -25 -75 -1 -2
-57 -12 -124 -22 -68 -11 -125 -22 -128 -25 -3 -3 -11 -50 -17 -105 l-11 -99
111 -42 c62 -22 117 -44 122 -47 6 -4 13 -38 14 -77 l4 -70 -100 -58 c-55 -31
-106 -61 -112 -65 -10 -6 -7 -30 15 -107 l28 -100 130 4 131 3 37 -68 c20 -38
34 -74 32 -81 -3 -7 -37 -55 -77 -107 l-71 -95 64 -81 c34 -44 66 -80 69 -80
4 0 57 22 119 50 64 28 117 47 124 42 7 -4 33 -24 57 -45 l43 -37 -31 -122
c-18 -67 -30 -125 -27 -129 2 -4 43 -29 91 -55 l87 -47 87 93 88 94 75 -24
c85 -26 77 -12 101 -174 8 -55 20 -103 26 -107 18 -11 190 -22 199 -12 4 4 24
53 45 109 20 56 40 106 43 111 4 6 39 14 77 17 l70 7 65 -115 c36 -64 70 -114
75 -112 6 2 46 13 90 26 44 12 86 24 93 26 10 3 12 31 6 133 l-7 128 69 37
c38 20 74 34 81 32 7 -3 55 -37 107 -76 l95 -71 78 61 c43 34 79 65 81 69 1 4
-20 59 -47 121 -28 62 -47 118 -43 125 4 6 24 32 45 56 l38 44 122 -32 c67
-17 125 -29 129 -27 3 2 28 43 53 90 l47 86 -92 93 -92 92 23 73 c13 40 28 74
34 75 5 2 63 11 128 20 64 10 117 18 118 19 0 0 6 47 13 104 l11 102 -55 21
c-30 12 -85 32 -122 46 -67 25 -68 26 -68 62 0 20 -3 52 -6 71 l-5 35 106 60
c59 33 111 62 115 65 5 3 -4 50 -19 105 l-28 100 -131 -3 -131 -3 -36 71 c-20
39 -32 76 -28 83 4 7 38 53 76 104 61 82 67 94 55 110 -52 70 -113 143 -120
143 -4 0 -58 -22 -119 -50 -123 -54 -112 -55 -184 8 l-37 34 28 116 c16 64 29
121 29 126 0 9 -32 30 -133 86 l-43 24 -92 -92 -92 -92 -75 24 -74 23 -18 123
c-9 67 -20 125 -23 128 -3 4 -51 11 -105 17 l-100 11 -21 -56z m179 11 c27 -1
27 2 47 -141 l17 -115 86 -28 c48 -15 90 -27 93 -27 3 0 46 40 95 90 l89 90
72 -40 71 -40 -32 -126 -33 -125 69 -56 69 -56 116 52 c63 29 116 51 117 49 1
-2 23 -29 50 -60 32 -39 45 -64 42 -75 -4 -10 -37 -58 -74 -108 l-68 -89 45
-88 46 -87 127 6 126 6 21 -68 c12 -37 21 -75 21 -84 0 -10 -39 -39 -108 -77
l-107 -62 3 -83 c2 -46 7 -88 12 -92 4 -5 59 -28 121 -52 63 -24 113 -46 113
-49 -1 -4 -5 -40 -9 -82 -4 -43 -12 -77 -18 -79 -7 -2 -64 -11 -127 -20 l-116
-17 -29 -91 -30 -91 92 -91 92 -90 -40 -71 -40 -72 -124 33 -125 32 -55 -64
c-30 -36 -55 -68 -55 -73 0 -4 23 -58 50 -120 48 -107 49 -114 32 -126 -10 -7
-38 -29 -61 -48 -24 -20 -47 -36 -52 -36 -4 0 -52 33 -106 73 l-98 74 -86 -45
-87 -45 6 -128 5 -127 -52 -16 c-120 -35 -108 -41 -179 83 l-63 109 -82 -5
c-45 -3 -86 -10 -92 -14 -5 -5 -28 -58 -51 -117 l-42 -107 -73 2 c-40 1 -78 4
-84 7 -6 2 -19 60 -29 128 l-18 124 -93 31 -93 30 -87 -94 -86 -93 -72 40
c-40 22 -72 43 -72 47 0 4 13 61 30 125 l30 118 -50 44 c-84 75 -77 74 -205
17 -62 -29 -114 -50 -115 -49 -1 2 -22 29 -48 61 -26 33 -47 63 -47 68 0 5 32
51 70 103 39 51 70 97 70 102 0 5 -19 45 -42 90 l-42 81 -129 -1 -130 -1 -22
75 c-27 89 -36 77 109 159 l95 54 -5 46 c-15 134 -12 127 -52 145 -20 8 -71
28 -112 44 -85 32 -86 34 -75 137 l6 62 127 17 c70 10 127 19 128 19 1 1 14
43 29 94 l28 91 -92 87 -91 88 36 66 c20 36 39 69 43 73 3 4 56 -6 116 -22 61
-17 117 -30 126 -30 14 0 119 118 119 134 0 4 -23 56 -51 117 -27 61 -49 112
-47 114 58 49 120 95 128 95 6 0 52 -31 104 -70 51 -38 97 -70 101 -70 5 0 45
19 91 42 l82 42 -2 130 -1 130 75 22 c88 26 75 35 155 -107 l55 -97 63 5 c119
10 114 6 158 123 22 58 41 110 43 116 3 7 24 8 62 3 33 -4 69 -8 82 -8z"/>
<path d="M2247 2328 c-2 -7 26 -45 62 -83 278 -295 367 -734 227 -1121 -53
-147 -128 -264 -244 -386 -156 -162 -335 -262 -572 -320 -84 -20 -366 -18
-457 4 -226 55 -377 141 -544 307 -148 148 -235 300 -291 509 -29 110 -36 336
-14 455 41 217 145 422 286 565 31 31 40 46 32 54 -23 23 -172 -164 -242 -302
-214 -426 -136 -950 192 -1288 165 -170 350 -274 583 -328 117 -28 367 -26
486 4 233 58 407 158 569 328 190 200 293 440 307 719 15 302 -92 602 -293
816 -65 70 -81 82 -87 67z"/>
<path d="M852 1913 c-85 -132 -116 -244 -116 -413 0 -149 15 -216 79 -346 100
-205 301 -358 530 -405 114 -24 196 -24 310 0 242 50 444 212 547 439 36 80
68 223 68 308 0 123 -43 285 -106 391 -42 73 -40 40 4 -49 38 -77 61 -149 76
-240 l7 -38 -751 0 -752 0 7 43 c20 118 59 220 115 303 33 49 35 54 21 54 -5
0 -23 -21 -39 -47z m168 -638 l0 -165 -35 0 -35 0 0 165 0 165 35 0 35 0 0
-165z m110 0 l0 -165 -30 0 -30 0 0 165 0 165 30 0 30 0 0 -165z m120 0 l0
-165 -30 0 -30 0 0 165 0 165 30 0 30 0 0 -165z m235 140 c0 -15 -8 -21 -32
-23 l-33 -3 0 -140 0 -139 -30 0 -30 0 0 140 0 140 -35 0 c-31 0 -35 3 -35 25
l0 26 98 -3 c89 -3 97 -5 97 -23z m199 4 c25 -20 26 -23 26 -139 0 -154 -6
-163 -114 -168 l-76 -4 0 166 0 166 69 0 c54 0 74 -4 95 -21z m171 -1 c3 -13
12 -59 21 -103 9 -44 17 -81 18 -83 2 -1 11 45 21 103 l18 105 44 0 43 0 0
-165 0 -165 -30 0 -30 0 -1 98 -1 97 -13 -74 c-22 -122 -22 -121 -55 -121 -17
0 -30 5 -30 13 -1 6 -9 50 -20 97 l-18 85 -1 -97 -1 -98 -30 0 -30 0 0 165 0
165 45 0 c38 0 45 -3 50 -22z m-607 -383 c6 11 14 17 18 13 4 -4 1 -14 -6 -23
-12 -14 -11 -29 5 -67 11 -26 -10 -22 -23 5 l-11 22 0 -22 c-2 -46 -21 -22
-21 25 0 52 10 75 21 45 5 -16 6 -16 17 2z m74 -32 c1 -48 1 -48 5 -8 7 64 25
69 21 5 -3 -47 -6 -55 -23 -55 -17 0 -20 8 -23 53 -2 31 1 52 7 52 6 0 12 -21
13 -47z m105 35 c9 -15 11 -98 2 -98 -3 0 -11 10 -17 23 l-11 22 0 -22 c-1
-13 -5 -23 -11 -23 -11 0 -14 93 -3 103 10 11 31 8 40 -5z m70 -15 l11 -28 1
28 c2 49 21 18 21 -34 0 -37 -4 -49 -15 -49 -8 0 -15 9 -15 20 0 11 -5 20 -11
20 -6 0 -8 -9 -4 -20 4 -11 2 -20 -4 -20 -7 0 -11 23 -11 55 0 60 10 70 27 28z
m102 13 c7 -8 11 -32 9 -53 -2 -30 -7 -39 -24 -41 -19 -3 -22 3 -26 38 -5 60
15 88 41 56z m89 -45 c3 -50 2 -52 -20 -49 -19 2 -24 10 -26 41 -3 39 12 71
32 64 6 -2 12 -27 14 -56z m52 14 c0 -31 5 -47 18 -54 14 -9 13 -10 -10 -11
-27 0 -28 2 -28 55 0 30 5 55 10 55 6 0 10 -20 10 -45z"/>
<path d="M1580 1275 c0 -113 0 -115 23 -115 39 0 47 18 47 111 0 107 -4 119
-41 119 l-29 0 0 -115z"/>
<path d="M1400 1009 c0 -11 5 -17 10 -14 6 3 10 13 10 21 0 8 -4 14 -10 14 -5
0 -10 -9 -10 -21z"/>
<path d="M1570 995 c0 -19 5 -35 10 -35 6 0 10 16 10 35 0 19 -4 35 -10 35 -5
0 -10 -16 -10 -35z"/>
<path d="M1660 994 c0 -19 4 -33 8 -30 8 5 4 66 -4 66 -2 0 -4 -16 -4 -36z"/>
</g>
</svg>
