<?xml version="1.0" standalone="yes"?>
<svg xmlns="http://www.w3.org/2000/svg" width="1403" height="815">
<path style="fill:#fefefe; stroke:none;" d="M0 0L0 304L10 299L11 299L17 311L5.55941 314.095L0 307L0 815L1403 815L1403 0L528.001 0.000793457L514.003 5.13269L500.999 0.00463867L0 0z"/>
<path style="fill:#aadce2; stroke:none;" d="M507 0C510.701 6.74438 517.466 7.16296 521 0L507 0M869 32L869 41L860 41L860 45L869 45L869 53L873 53L873 45L881 45L881 41L873 41L873 32L869 32M215 61L220 70C222.261 69.0189 229.562 66.6953 230.508 64.4012C234.744 54.1282 218.185 51.3945 215 61M59 65L59 74L51 74L51 77L59 77L59 86L63 86L63 77L72 77L72 74L63 74L63 65L59 65z"/>
<path style="fill:#76bcb8; stroke:none;" d="M459 71L460 72L459 71z"/>
<path style="fill:#269d97; stroke:none;" d="M22 271L46 280.424L103 301.053L197 335.053L248 353C240.135 384.924 237.024 418.577 231.586 451C230.044 460.198 223.264 478.672 228.417 486.961C233.955 495.868 246.688 501.144 256 504.989C281.442 515.495 308.92 518.824 336 522.424C415.536 533 500.48 530.801 580 521.286C614.503 517.157 655.111 512.811 685 493.452C699.964 483.76 693.825 469.176 691.579 454C688.521 433.341 685.637 412.658 682.579 392C681.682 385.945 677.267 372.788 680.117 367.214C682.808 361.951 694.757 359.034 700 357C694.332 354.639 687.097 356.624 681 355.331C664.019 351.729 646.213 334.934 660.681 318.174C665.608 312.465 680.792 310.236 683.396 304.697C686.401 298.303 682.571 284.039 682.089 277C680.414 252.529 678.127 227.518 677.999 203C677.96 195.543 679.501 176.386 674.397 170.638C671.351 167.209 665.05 165.732 661 163.755C649.473 158.129 637.657 153.043 626 147.691C588.636 130.537 550.946 113.789 514 95.7554C501.804 89.8026 489.222 84.6395 477 78.7415C472.286 76.4665 465.376 71.7043 460 72.0247C448.374 72.7177 433.601 83.4177 423 88.1389C392.886 101.55 363.107 115.721 333 129.139C266.441 158.802 200.254 189.354 134 219.691C97.1775 236.552 56.9933 250.653 22 271z"/>
<path style="fill:#76bcb8; stroke:none;" d="M461 71L462 72L461 71z"/>
<path style="fill:#aadce2; stroke:none;" d="M456 72L457 73L456 72z"/>
<path style="fill:#76bcb8; stroke:none;" d="M457 72L458 73L457 72M463 72L464 73L463 72z"/>
<path style="fill:#aadce2; stroke:none;" d="M454 73L455 74L454 73z"/>
<path style="fill:#76bcb8; stroke:none;" d="M455 73L456 74L455 73M465 73L466 74L465 73z"/>
<path style="fill:#aadce2; stroke:none;" d="M466 73L467 74L466 73M452 74L453 75L452 74z"/>
<path style="fill:#76bcb8; stroke:none;" d="M467 74L468 75L467 74z"/>
<path style="fill:#aadce2; stroke:none;" d="M468 74L469 75L468 74M450 75L451 76L450 75M470 75L471 76L470 75z"/>
<path style="fill:#76bcb8; stroke:none;" d="M448 76L449 77L448 76z"/>
<path style="fill:#aadce2; stroke:none;" d="M472 76L473 77L472 76M445 77L446 78L445 77z"/>
<path style="fill:#76bcb8; stroke:none;" d="M446 77L447 78L446 77M474 77L475 78L474 77z"/>
<path style="fill:#aadce2; stroke:none;" d="M443 78L444 79L443 78z"/>
<path style="fill:#76bcb8; stroke:none;" d="M444 78L445 79L444 78M476 78L477 79L476 78z"/>
<path style="fill:#aadce2; stroke:none;" d="M441 79L442 80L441 79z"/>
<path style="fill:#76bcb8; stroke:none;" d="M478 79L479 80L478 79z"/>
<path style="fill:#aadce2; stroke:none;" d="M479 79L480 80L479 79M439 80L440 81L439 80z"/>
<path style="fill:#76bcb8; stroke:none;" d="M480 80L481 81L480 80z"/>
<path style="fill:#aadce2; stroke:none;" d="M481 80L482 81L481 80z"/>
<path style="fill:#76bcb8; stroke:none;" d="M437 81L438 82L437 81z"/>
<path style="fill:#aadce2; stroke:none;" d="M483 81L484 82L483 81M434 82L435 83L434 82z"/>
<path style="fill:#76bcb8; stroke:none;" d="M435 82L436 83L435 82z"/>
<path style="fill:#aadce2; stroke:none;" d="M485 82L486 83L485 82M432 83L433 84L432 83z"/>
<path style="fill:#76bcb8; stroke:none;" d="M433 83L434 84L433 83M487 83L488 84L487 83z"/>
<path style="fill:#aadce2; stroke:none;" d="M430 84L431 85L430 84z"/>
<path style="fill:#76bcb8; stroke:none;" d="M489 84L490 85L489 84z"/>
<path style="fill:#aadce2; stroke:none;" d="M428 85L429 86L428 85z"/>
<path style="fill:#76bcb8; stroke:none;" d="M491 85L492 86L491 85z"/>
<path style="fill:#aadce2; stroke:none;" d="M492 85L493 86L492 85z"/>
<path style="fill:#76bcb8; stroke:none;" d="M426 86L427 87L426 86M493 86L494 87L493 86z"/>
<path style="fill:#aadce2; stroke:none;" d="M494 86L495 87L494 86z"/>
<path style="fill:#76bcb8; stroke:none;" d="M424 87L425 88L424 87z"/>
<path style="fill:#aadce2; stroke:none;" d="M496 87L497 88L496 87M421 88L422 89L421 88z"/>
<path style="fill:#76bcb8; stroke:none;" d="M422 88L423 89L422 88z"/>
<path style="fill:#aadce2; stroke:none;" d="M498 88L499 89L498 88M419 89L420 90L419 89z"/>
<path style="fill:#76bcb8; stroke:none;" d="M500 89L501 90L500 89z"/>
<path style="fill:#aadce2; stroke:none;" d="M417 90L418 91L417 90z"/>
<path style="fill:#76bcb8; stroke:none;" d="M502 90L503 91L502 90M415 91L416 92L415 91M504 91L505 92L504 91z"/>
<path style="fill:#aadce2; stroke:none;" d="M505 91L506 92L505 91z"/>
<path style="fill:#76bcb8; stroke:none;" d="M413 92L414 93L413 92M506 92L507 93L506 92z"/>
<path style="fill:#aadce2; stroke:none;" d="M507 92L508 93L507 92M410 93L411 94L410 93z"/>
<path style="fill:#76bcb8; stroke:none;" d="M411 93L412 94L411 93z"/>
<path style="fill:#aadce2; stroke:none;" d="M509 93L510 94L509 93M408 94L409 95L408 94M511 94L512 95L511 94M406 95L407 96L406 95z"/>
<path style="fill:#76bcb8; stroke:none;" d="M513 95L514 96L513 95M404 96L405 97L404 96M515 96L516 97L515 96M402 97L403 98L402 97M517 97L518 98L517 97z"/>
<path style="fill:#aadce2; stroke:none;" d="M518 97L519 98L518 97M399 98L400 99L399 98z"/>
<path style="fill:#76bcb8; stroke:none;" d="M400 98L401 99L400 98M519 98L520 99L519 98z"/>
<path style="fill:#aadce2; stroke:none;" d="M520 98L521 99L520 98M397 99L398 100L397 99M522 99L523 100L522 99M395 100L396 101L395 100M524 100L525 101L524 100z"/>
<path style="fill:#76bcb8; stroke:none;" d="M393 101L394 102L393 101z"/>
<path style="fill:#aadce2; stroke:none;" d="M526 101L527 102L526 101z"/>
<path style="fill:#76bcb8; stroke:none;" d="M391 102L392 103L391 102M528 102L529 103L528 102z"/>
<path style="fill:#aadce2; stroke:none;" d="M388 103L389 104L388 103z"/>
<path style="fill:#76bcb8; stroke:none;" d="M389 103L390 104L389 103M530 103L531 104L530 103z"/>
<path style="fill:#aadce2; stroke:none;" d="M531 103L532 104L531 103M386 104L387 105L386 104z"/>
<path style="fill:#76bcb8; stroke:none;" d="M532 104L533 105L532 104z"/>
<path style="fill:#aadce2; stroke:none;" d="M533 104L534 105L533 104M384 105L385 106L384 105z"/>
<path style="fill:#76bcb8; stroke:none;" d="M534 105L535 106L534 105z"/>
<path style="fill:#aadce2; stroke:none;" d="M535 105L536 106L535 105z"/>
<path style="fill:#76bcb8; stroke:none;" d="M382 106L383 107L382 106z"/>
<path style="fill:#aadce2; stroke:none;" d="M537 106L538 107L537 106z"/>
<path style="fill:#76bcb8; stroke:none;" d="M380 107L381 108L380 107z"/>
<path style="fill:#aadce2; stroke:none;" d="M539 107L540 108L539 107M377 108L378 109L377 108z"/>
<path style="fill:#76bcb8; stroke:none;" d="M378 108L379 109L378 108M541 108L542 109L541 108z"/>
<path style="fill:#aadce2; stroke:none;" d="M375 109L376 110L375 109z"/>
<path style="fill:#76bcb8; stroke:none;" d="M543 109L544 110L543 109z"/>
<path style="fill:#aadce2; stroke:none;" d="M544 109L545 110L544 109M373 110L374 111L373 110z"/>
<path style="fill:#76bcb8; stroke:none;" d="M545 110L546 111L545 110z"/>
<path style="fill:#aadce2; stroke:none;" d="M546 110L547 111L546 110z"/>
<path style="fill:#76bcb8; stroke:none;" d="M371 111L372 112L371 111M547 111L548 112L547 111z"/>
<path style="fill:#aadce2; stroke:none;" d="M548 111L549 112L548 111z"/>
<path style="fill:#76bcb8; stroke:none;" d="M369 112L370 113L369 112z"/>
<path style="fill:#aadce2; stroke:none;" d="M550 112L551 113L550 112M366 113L367 114L366 113z"/>
<path style="fill:#76bcb8; stroke:none;" d="M367 113L368 114L367 113z"/>
<path style="fill:#aadce2; stroke:none;" d="M552 113L553 114L552 113M364 114L365 115L364 114z"/>
<path style="fill:#76bcb8; stroke:none;" d="M554 114L555 115L554 114z"/>
<path style="fill:#aadce2; stroke:none;" d="M362 115L363 116L362 115z"/>
<path style="fill:#76bcb8; stroke:none;" d="M556 115L557 116L556 115M360 116L361 117L360 116M558 116L559 117L558 116z"/>
<path style="fill:#aadce2; stroke:none;" d="M559 116L560 117L559 116z"/>
<path style="fill:#76bcb8; stroke:none;" d="M358 117L359 118L358 117M560 117L561 118L560 117z"/>
<path style="fill:#aadce2; stroke:none;" d="M561 117L562 118L561 117M355 118L356 119L355 118z"/>
<path style="fill:#76bcb8; stroke:none;" d="M356 118L357 119L356 118z"/>
<path style="fill:#aadce2; stroke:none;" d="M563 118L564 119L563 118M353 119L354 120L353 119M565 119L566 120L565 119M351 120L352 121L351 120z"/>
<path style="fill:#76bcb8; stroke:none;" d="M567 120L568 121L567 120M349 121L350 122L349 121M569 121L570 122L569 121M347 122L348 123L347 122M571 122L572 123L571 122z"/>
<path style="fill:#aadce2; stroke:none;" d="M572 122L573 123L572 122M344 123L345 124L344 123z"/>
<path style="fill:#76bcb8; stroke:none;" d="M345 123L346 124L345 123M573 123L574 124L573 123z"/>
<path style="fill:#aadce2; stroke:none;" d="M574 123L575 124L574 123M342 124L343 125L342 124M576 124L577 125L576 124M340 125L341 126L340 125M578 125L579 126L578 125z"/>
<path style="fill:#76bcb8; stroke:none;" d="M338 126L339 127L338 126M580 126L581 127L580 126M336 127L337 128L336 127M582 127L583 128L582 127z"/>
<path style="fill:#aadce2; stroke:none;" d="M333 128L334 129L333 128z"/>
<path style="fill:#76bcb8; stroke:none;" d="M334 128L335 129L334 128M584 128L585 129L584 128z"/>
<path style="fill:#aadce2; stroke:none;" d="M585 128L586 129L585 128M331 129L332 130L331 129z"/>
<path style="fill:#76bcb8; stroke:none;" d="M332 129L333 130L332 129M586 129L587 130L586 129z"/>
<path style="fill:#aadce2; stroke:none;" d="M587 129L588 130L587 129M329 130L330 131L329 130z"/>
<path style="fill:#76bcb8; stroke:none;" d="M588 130L589 131L588 130z"/>
<path style="fill:#aadce2; stroke:none;" d="M589 130L590 131L589 130z"/>
<path style="fill:#76bcb8; stroke:none;" d="M327 131L328 132L327 131z"/>
<path style="fill:#aadce2; stroke:none;" d="M591 131L592 132L591 131z"/>
<path style="fill:#76bcb8; stroke:none;" d="M325 132L326 133L325 132M593 132L594 133L593 132z"/>
<path style="fill:#aadce2; stroke:none;" d="M322 133L323 134L322 133z"/>
<path style="fill:#76bcb8; stroke:none;" d="M323 133L324 134L323 133M595 133L596 134L595 133z"/>
<path style="fill:#aadce2; stroke:none;" d="M320 134L321 135L320 134z"/>
<path style="fill:#76bcb8; stroke:none;" d="M321 134L322 135L321 134M597 134L598 135L597 134z"/>
<path style="fill:#aadce2; stroke:none;" d="M598 134L599 135L598 134M318 135L319 136L318 135z"/>
<path style="fill:#76bcb8; stroke:none;" d="M599 135L600 136L599 135z"/>
<path style="fill:#aadce2; stroke:none;" d="M600 135L601 136L600 135z"/>
<path style="fill:#76bcb8; stroke:none;" d="M316 136L317 137L316 136M601 136L602 137L601 136z"/>
<path style="fill:#aadce2; stroke:none;" d="M602 136L603 137L602 136z"/>
<path style="fill:#76bcb8; stroke:none;" d="M314 137L315 138L314 137z"/>
<path style="fill:#aadce2; stroke:none;" d="M604 137L605 138L604 137M311 138L312 139L311 138z"/>
<path style="fill:#76bcb8; stroke:none;" d="M312 138L313 139L312 138M606 138L607 139L606 138z"/>
<path style="fill:#aadce2; stroke:none;" d="M309 139L310 140L309 139z"/>
<path style="fill:#76bcb8; stroke:none;" d="M310 139L311 140L310 139M608 139L609 140L608 139z"/>
<path style="fill:#aadce2; stroke:none;" d="M307 140L308 141L307 140z"/>
<path style="fill:#76bcb8; stroke:none;" d="M610 140L611 141L610 140z"/>
<path style="fill:#aadce2; stroke:none;" d="M611 140L612 141L611 140z"/>
<path style="fill:#76bcb8; stroke:none;" d="M305 141L306 142L305 141M612 141L613 142L612 141z"/>
<path style="fill:#aadce2; stroke:none;" d="M613 141L614 142L613 141z"/>
<path style="fill:#76bcb8; stroke:none;" d="M303 142L304 143L303 142M614 142L615 143L614 142z"/>
<path style="fill:#aadce2; stroke:none;" d="M615 142L616 143L615 142M300 143L301 144L300 143z"/>
<path style="fill:#76bcb8; stroke:none;" d="M301 143L302 144L301 143z"/>
<path style="fill:#aadce2; stroke:none;" d="M617 143L618 144L617 143M298 144L299 145L298 144z"/>
<path style="fill:#76bcb8; stroke:none;" d="M299 144L300 145L299 144M619 144L620 145L619 144z"/>
<path style="fill:#aadce2; stroke:none;" d="M296 145L297 146L296 145z"/>
<path style="fill:#76bcb8; stroke:none;" d="M621 145L622 146L621 145M294 146L295 147L294 146M623 146L624 147L623 146z"/>
<path style="fill:#aadce2; stroke:none;" d="M624 146L625 147L624 146z"/>
<path style="fill:#76bcb8; stroke:none;" d="M292 147L293 148L292 147M625 147L626 148L625 147z"/>
<path style="fill:#aadce2; stroke:none;" d="M626 147L627 148L626 147M289 148L290 149L289 148z"/>
<path style="fill:#76bcb8; stroke:none;" d="M290 148L291 149L290 148M627 148L628 149L627 148z"/>
<path style="fill:#aadce2; stroke:none;" d="M628 148L629 149L628 148M287 149L288 150L287 149z"/>
<path style="fill:#76bcb8; stroke:none;" d="M288 149L289 150L288 149z"/>
<path style="fill:#aadce2; stroke:none;" d="M630 149L631 150L630 149M285 150L286 151L285 150z"/>
<path style="fill:#76bcb8; stroke:none;" d="M632 150L633 151L632 150M283 151L284 152L283 151M634 151L635 152L634 151M281 152L282 153L281 152M636 152L637 153L636 152z"/>
<path style="fill:#aadce2; stroke:none;" d="M637 152L638 153L637 152M278 153L279 154L278 153z"/>
<path style="fill:#76bcb8; stroke:none;" d="M279 153L280 154L279 153M638 153L639 154L638 153z"/>
<path style="fill:#aadce2; stroke:none;" d="M639 153L640 154L639 153M276 154L277 155L276 154z"/>
<path style="fill:#76bcb8; stroke:none;" d="M277 154L278 155L277 154M640 154L641 155L640 154z"/>
<path style="fill:#aadce2; stroke:none;" d="M641 154L642 155L641 154M274 155L275 156L274 155M643 155L644 156L643 155z"/>
<path style="fill:#76bcb8; stroke:none;" d="M272 156L273 157L272 156M645 156L646 157L645 156M270 157L271 158L270 157M647 157L648 158L647 157z"/>
<path style="fill:#aadce2; stroke:none;" d="M267 158L268 159L267 158z"/>
<path style="fill:#76bcb8; stroke:none;" d="M268 158L269 159L268 158M649 158L650 159L649 158z"/>
<path style="fill:#aadce2; stroke:none;" d="M650 158L651 159L650 158M265 159L266 160L265 159z"/>
<path style="fill:#76bcb8; stroke:none;" d="M266 159L267 160L266 159M651 159L652 160L651 159z"/>
<path style="fill:#aadce2; stroke:none;" d="M652 159L653 160L652 159M263 160L264 161L263 160z"/>
<path style="fill:#76bcb8; stroke:none;" d="M653 160L654 161L653 160z"/>
<path style="fill:#aadce2; stroke:none;" d="M654 160L655 161L654 160z"/>
<path style="fill:#76bcb8; stroke:none;" d="M261 161L262 162L261 161z"/>
<path style="fill:#aadce2; stroke:none;" d="M656 161L657 162L656 161z"/>
<path style="fill:#76bcb8; stroke:none;" d="M259 162L260 163L259 162z"/>
<path style="fill:#aadce2; stroke:none;" d="M658 162L659 163L658 162M256 163L257 164L256 163z"/>
<path style="fill:#76bcb8; stroke:none;" d="M257 163L258 164L257 163M660 163L661 164L660 163z"/>
<path style="fill:#aadce2; stroke:none;" d="M254 164L255 165L254 164z"/>
<path style="fill:#76bcb8; stroke:none;" d="M255 164L256 165L255 164M662 164L663 165L662 164z"/>
<path style="fill:#aadce2; stroke:none;" d="M663 164L664 165L663 164M252 165L253 166L252 165z"/>
<path style="fill:#76bcb8; stroke:none;" d="M664 165L665 166L664 165z"/>
<path style="fill:#aadce2; stroke:none;" d="M665 165L666 166L665 165z"/>
<path style="fill:#76bcb8; stroke:none;" d="M250 166L251 167L250 166M666 166L667 167L666 166z"/>
<path style="fill:#aadce2; stroke:none;" d="M667 166L668 167L667 166z"/>
<path style="fill:#76bcb8; stroke:none;" d="M248 167L249 168L248 167z"/>
<path style="fill:#aadce2; stroke:none;" d="M669 167L670 168L669 167M245 168L246 169L245 168z"/>
<path style="fill:#76bcb8; stroke:none;" d="M246 168L247 169L246 168z"/>
<path style="fill:#aadce2; stroke:none;" d="M671 168L672 169L671 168M243 169L244 170L243 169z"/>
<path style="fill:#76bcb8; stroke:none;" d="M244 169L245 170L244 169M673 169L674 170L673 169z"/>
<path style="fill:#aadce2; stroke:none;" d="M241 170L242 171L241 170z"/>
<path style="fill:#76bcb8; stroke:none;" d="M675 170L676 171L675 170z"/>
<path style="fill:#aadce2; stroke:none;" d="M239 171L240 172L239 171M677.667 171.333L678.333 171.667L677.667 171.333z"/>
<path style="fill:#76bcb8; stroke:none;" d="M237 172L238 173L237 172z"/>
<path style="fill:#aadce2; stroke:none;" d="M676 172L677 173L676 172M679.667 172.333L680.333 172.667L679.667 172.333M234 173L235 174L234 173z"/>
<path style="fill:#76bcb8; stroke:none;" d="M235 173L236 174L235 173M676 173L676 179L677 179L676 173z"/>
<path style="fill:#aadce2; stroke:none;" d="M682 173L683 174L682 173M232 174L233 175L232 174z"/>
<path style="fill:#76bcb8; stroke:none;" d="M233 174L234 175L233 174M684 174L685 175L684 174z"/>
<path style="fill:#aadce2; stroke:none;" d="M230 175L231 176L230 175z"/>
<path style="fill:#269d97; stroke:none;" d="M684 175L687.089 225L692 306C706.169 306.117 728.818 314.404 727.891 332C727.555 338.375 723.337 342.933 720 348C759.306 331.657 798.188 313.803 837 296.306C854.51 288.412 877.725 282.561 893 271C853.04 249.696 810.163 232.59 769 213.691C741.545 201.087 713.033 183.3 684 175z"/>
<path style="fill:#76bcb8; stroke:none;" d="M686 175L687 176L686 175z"/>
<path style="fill:#aadce2; stroke:none;" d="M687 175L688 176L687 175M228 176L229 177L228 176z"/>
<path style="fill:#76bcb8; stroke:none;" d="M688 176L689 177L688 176z"/>
<path style="fill:#aadce2; stroke:none;" d="M689 176L690 177L689 176z"/>
<path style="fill:#76bcb8; stroke:none;" d="M226 177L227 178L226 177M684 177L684 183L685 183L684 177M690 177L691 178L690 177z"/>
<path style="fill:#aadce2; stroke:none;" d="M691 177L692 178L691 177M223 178L224 179L223 178z"/>
<path style="fill:#76bcb8; stroke:none;" d="M224 178L225 179L224 178z"/>
<path style="fill:#aadce2; stroke:none;" d="M693 178L694 179L693 178M221 179L222 180L221 179z"/>
<path style="fill:#76bcb8; stroke:none;" d="M222 179L223 180L222 179z"/>
<path style="fill:#aadce2; stroke:none;" d="M695 179L696 180L695 179M219 180L220 181L219 180z"/>
<path style="fill:#76bcb8; stroke:none;" d="M697 180L698 181L697 180z"/>
<path style="fill:#aadce2; stroke:none;" d="M217 181L218 182L217 181z"/>
<path style="fill:#76bcb8; stroke:none;" d="M699 181L700 182L699 181z"/>
<path style="fill:#aadce2; stroke:none;" d="M700 181L701 182L700 181z"/>
<path style="fill:#76bcb8; stroke:none;" d="M215 182L216 183L215 182M701 182L702 183L701 182z"/>
<path style="fill:#aadce2; stroke:none;" d="M702 182L703 183L702 182M212 183L213 184L212 183z"/>
<path style="fill:#76bcb8; stroke:none;" d="M213 183L214 184L213 183z"/>
<path style="fill:#aadce2; stroke:none;" d="M684 183L684 188L685 188L684 183z"/>
<path style="fill:#76bcb8; stroke:none;" d="M703 183L704 184L703 183z"/>
<path style="fill:#aadce2; stroke:none;" d="M704 183L705 184L704 183M210 184L211 185L210 184z"/>
<path style="fill:#76bcb8; stroke:none;" d="M211 184L212 185L211 184M705 184L706 185L705 184z"/>
<path style="fill:#aadce2; stroke:none;" d="M706 184L707 185L706 184M208 185L209 186L208 185z"/>
<path style="fill:#76bcb8; stroke:none;" d="M209 185L210 186L209 185z"/>
<path style="fill:#aadce2; stroke:none;" d="M677 185L677 190L678 190L677 185M708 185L709 186L708 185M206 186L207 187L206 186z"/>
<path style="fill:#76bcb8; stroke:none;" d="M710 186L711 187L710 186M204 187L205 188L204 187M712 187L713 188L712 187z"/>
<path style="fill:#aadce2; stroke:none;" d="M713 187L714 188L713 187z"/>
<path style="fill:#76bcb8; stroke:none;" d="M202 188L203 189L202 188M714 188L715 189L714 188z"/>
<path style="fill:#aadce2; stroke:none;" d="M715 188L716 189L715 188M199 189L200 190L199 189z"/>
<path style="fill:#76bcb8; stroke:none;" d="M200 189L201 190L200 189M716 189L717 190L716 189z"/>
<path style="fill:#aadce2; stroke:none;" d="M717 189L718 190L717 189M197 190L198 191L197 190z"/>
<path style="fill:#76bcb8; stroke:none;" d="M198 190L199 191L198 190M677 190L677 196L678 196L677 190M718 190L719 191L718 190z"/>
<path style="fill:#aadce2; stroke:none;" d="M719 190L720 191L719 190M195 191L196 192L195 191M721 191L722 192L721 191z"/>
<path style="fill:#76bcb8; stroke:none;" d="M193 192L194 193L193 192M723 192L724 193L723 192M191 193L192 194L191 193M725 193L726 194L725 193z"/>
<path style="fill:#aadce2; stroke:none;" d="M726 193L727 194L726 193M188 194L189 195L188 194z"/>
<path style="fill:#76bcb8; stroke:none;" d="M189 194L190 195L189 194M685 194L685 200L686 200L685 194M727 194L728 195L727 194z"/>
<path style="fill:#aadce2; stroke:none;" d="M728 194L729 195L728 194M186 195L187 196L186 195z"/>
<path style="fill:#76bcb8; stroke:none;" d="M187 195L188 196L187 195M729 195L730 196L729 195z"/>
<path style="fill:#aadce2; stroke:none;" d="M730 195L731 196L730 195M184 196L185 197L184 196z"/>
<path style="fill:#76bcb8; stroke:none;" d="M731 196L732 197L731 196z"/>
<path style="fill:#aadce2; stroke:none;" d="M732 196L733 197L732 196z"/>
<path style="fill:#76bcb8; stroke:none;" d="M182 197L183 198L182 197z"/>
<path style="fill:#aadce2; stroke:none;" d="M734 197L735 198L734 197z"/>
<path style="fill:#76bcb8; stroke:none;" d="M180 198L181 199L180 198M736 198L737 199L736 198z"/>
<path style="fill:#aadce2; stroke:none;" d="M177 199L178 200L177 199z"/>
<path style="fill:#76bcb8; stroke:none;" d="M178 199L179 200L178 199M738 199L739 200L738 199z"/>
<path style="fill:#aadce2; stroke:none;" d="M739 199L740 200L739 199M175 200L176 201L175 200z"/>
<path style="fill:#76bcb8; stroke:none;" d="M176 200L177 201L176 200z"/>
<path style="fill:#aadce2; stroke:none;" d="M685 200L685 205L686 205L685 200z"/>
<path style="fill:#76bcb8; stroke:none;" d="M740 200L741 201L740 200z"/>
<path style="fill:#aadce2; stroke:none;" d="M741 200L742 201L741 200M173 201L174 202L173 201z"/>
<path style="fill:#76bcb8; stroke:none;" d="M742 201L743 202L742 201z"/>
<path style="fill:#aadce2; stroke:none;" d="M743 201L744 202L743 201z"/>
<path style="fill:#76bcb8; stroke:none;" d="M171 202L172 203L171 202z"/>
<path style="fill:#aadce2; stroke:none;" d="M678 202L678 207L679 207L678 202z"/>
<path style="fill:#76bcb8; stroke:none;" d="M744 202L745 203L744 202z"/>
<path style="fill:#aadce2; stroke:none;" d="M745 202L746 203L745 202z"/>
<path style="fill:#76bcb8; stroke:none;" d="M169 203L170 204L169 203z"/>
<path style="fill:#aadce2; stroke:none;" d="M747 203L748 204L747 203M166 204L167 205L166 204z"/>
<path style="fill:#76bcb8; stroke:none;" d="M167 204L168 205L167 204M749 204L750 205L749 204z"/>
<path style="fill:#aadce2; stroke:none;" d="M164 205L165 206L164 205z"/>
<path style="fill:#76bcb8; stroke:none;" d="M165 205L166 206L165 205M751 205L752 206L751 205z"/>
<path style="fill:#aadce2; stroke:none;" d="M752 205L753 206L752 205M162 206L163 207L162 206z"/>
<path style="fill:#76bcb8; stroke:none;" d="M753 206L754 207L753 206z"/>
<path style="fill:#aadce2; stroke:none;" d="M754 206L755 207L754 206z"/>
<path style="fill:#76bcb8; stroke:none;" d="M160 207L161 208L160 207M678 207L678 213L679 213L678 207M755 207L756 208L755 207z"/>
<path style="fill:#aadce2; stroke:none;" d="M756 207L757 208L756 207z"/>
<path style="fill:#76bcb8; stroke:none;" d="M158 208L159 209L158 208M757 208L758 209L757 208z"/>
<path style="fill:#aadce2; stroke:none;" d="M758 208L759 209L758 208M155 209L156 210L155 209z"/>
<path style="fill:#76bcb8; stroke:none;" d="M156 209L157 210L156 209z"/>
<path style="fill:#aadce2; stroke:none;" d="M760 209L761 210L760 209M153 210L154 211L153 210z"/>
<path style="fill:#76bcb8; stroke:none;" d="M154 210L155 211L154 210M762 210L763 211L762 210z"/>
<path style="fill:#aadce2; stroke:none;" d="M151 211L152 212L151 211z"/>
<path style="fill:#76bcb8; stroke:none;" d="M686 211L686 217L687 217L686 211M764 211L765 212L764 211z"/>
<path style="fill:#aadce2; stroke:none;" d="M765 211L766 212L765 211z"/>
<path style="fill:#76bcb8; stroke:none;" d="M149 212L150 213L149 212M766 212L767 213L766 212z"/>
<path style="fill:#aadce2; stroke:none;" d="M767 212L768 213L767 212z"/>
<path style="fill:#76bcb8; stroke:none;" d="M147 213L148 214L147 213M768 213L769 214L768 213z"/>
<path style="fill:#aadce2; stroke:none;" d="M769 213L770 214L769 213M144 214L145 215L144 214z"/>
<path style="fill:#76bcb8; stroke:none;" d="M145 214L146 215L145 214M770 214L771 215L770 214z"/>
<path style="fill:#aadce2; stroke:none;" d="M771 214L772 215L771 214M142 215L143 216L142 215z"/>
<path style="fill:#76bcb8; stroke:none;" d="M143 215L144 216L143 215z"/>
<path style="fill:#aadce2; stroke:none;" d="M773 215L774 216L773 215M140 216L141 217L140 216z"/>
<path style="fill:#76bcb8; stroke:none;" d="M775 216L776 217L775 216M138 217L139 218L138 217z"/>
<path style="fill:#aadce2; stroke:none;" d="M686 217L686 222L687 222L686 217z"/>
<path style="fill:#76bcb8; stroke:none;" d="M777 217L778 218L777 217z"/>
<path style="fill:#aadce2; stroke:none;" d="M778 217L779 218L778 217z"/>
<path style="fill:#76bcb8; stroke:none;" d="M136 218L137 219L136 218M779 218L780 219L779 218z"/>
<path style="fill:#aadce2; stroke:none;" d="M780 218L781 219L780 218M133 219L134 220L133 219z"/>
<path style="fill:#76bcb8; stroke:none;" d="M134 219L135 220L134 219z"/>
<path style="fill:#aadce2; stroke:none;" d="M679 219L679 224L680 224L679 219z"/>
<path style="fill:#76bcb8; stroke:none;" d="M781 219L782 220L781 219z"/>
<path style="fill:#aadce2; stroke:none;" d="M782 219L783 220L782 219M131 220L132 221L131 220z"/>
<path style="fill:#76bcb8; stroke:none;" d="M132 220L133 221L132 220M783 220L784 221L783 220z"/>
<path style="fill:#aadce2; stroke:none;" d="M784 220L785 221L784 220M129 221L130 222L129 221M786 221L787 222L786 221z"/>
<path style="fill:#76bcb8; stroke:none;" d="M127 222L128 223L127 222M788 222L789 223L788 222M125 223L126 224L125 223M790 223L791 224L790 223z"/>
<path style="fill:#aadce2; stroke:none;" d="M122 224L123 225L122 224z"/>
<path style="fill:#76bcb8; stroke:none;" d="M123 224L124 225L123 224M679 224L679 230L680 230L679 224M792 224L793 225L792 224z"/>
<path style="fill:#aadce2; stroke:none;" d="M793 224L794 225L793 224M120 225L121 226L120 225z"/>
<path style="fill:#76bcb8; stroke:none;" d="M121 225L122 226L121 225M794 225L795 226L794 225z"/>
<path style="fill:#aadce2; stroke:none;" d="M795 225L796 226L795 225M118 226L119 227L118 226z"/>
<path style="fill:#76bcb8; stroke:none;" d="M796 226L797 227L796 226z"/>
<path style="fill:#aadce2; stroke:none;" d="M797 226L798 227L797 226z"/>
<path style="fill:#76bcb8; stroke:none;" d="M116 227L117 228L116 227z"/>
<path style="fill:#aadce2; stroke:none;" d="M799 227L800 228L799 227z"/>
<path style="fill:#76bcb8; stroke:none;" d="M114 228L115 229L114 228M687 228L687 234L688 234L687 228M801 228L802 229L801 228z"/>
<path style="fill:#aadce2; stroke:none;" d="M111 229L112 230L111 229z"/>
<path style="fill:#76bcb8; stroke:none;" d="M112 229L113 230L112 229M803 229L804 230L803 229z"/>
<path style="fill:#aadce2; stroke:none;" d="M109 230L110 231L109 230z"/>
<path style="fill:#76bcb8; stroke:none;" d="M110 230L111 231L110 230M805 230L806 231L805 230z"/>
<path style="fill:#aadce2; stroke:none;" d="M806 230L807 231L806 230M107 231L108 232L107 231z"/>
<path style="fill:#76bcb8; stroke:none;" d="M807 231L808 232L807 231z"/>
<path style="fill:#aadce2; stroke:none;" d="M808 231L809 232L808 231M105 232L106 233L105 232z"/>
<path style="fill:#76bcb8; stroke:none;" d="M809 232L810 233L809 232z"/>
<path style="fill:#aadce2; stroke:none;" d="M810 232L811 233L810 232z"/>
<path style="fill:#76bcb8; stroke:none;" d="M103 233L104 234L103 233z"/>
<path style="fill:#aadce2; stroke:none;" d="M812 233L813 234L812 233M100 234L101 235L100 234z"/>
<path style="fill:#76bcb8; stroke:none;" d="M101 234L102 235L101 234z"/>
<path style="fill:#aadce2; stroke:none;" d="M687 234L687 239L688 239L687 234z"/>
<path style="fill:#76bcb8; stroke:none;" d="M814 234L815 235L814 234z"/>
<path style="fill:#aadce2; stroke:none;" d="M98 235L99 236L98 235z"/>
<path style="fill:#76bcb8; stroke:none;" d="M99 235L100 236L99 235M816 235L817 236L816 235z"/>
<path style="fill:#aadce2; stroke:none;" d="M96 236L97 237L96 236M680 236L680 241L681 241L680 236z"/>
<path style="fill:#76bcb8; stroke:none;" d="M818 236L819 237L818 236z"/>
<path style="fill:#aadce2; stroke:none;" d="M819 236L820 237L819 236M94 237L95 238L94 237z"/>
<path style="fill:#76bcb8; stroke:none;" d="M820 237L821 238L820 237z"/>
<path style="fill:#aadce2; stroke:none;" d="M821 237L822 238L821 237z"/>
<path style="fill:#76bcb8; stroke:none;" d="M92 238L93 239L92 238M822 238L823 239L822 238z"/>
<path style="fill:#aadce2; stroke:none;" d="M823 238L824 239L823 238M89 239L90 240L89 239z"/>
<path style="fill:#76bcb8; stroke:none;" d="M90 239L91 240L90 239z"/>
<path style="fill:#aadce2; stroke:none;" d="M825 239L826 240L825 239M87 240L88 241L87 240z"/>
<path style="fill:#76bcb8; stroke:none;" d="M88 240L89 241L88 240M827 240L828 241L827 240z"/>
<path style="fill:#aadce2; stroke:none;" d="M85 241L86 242L85 241z"/>
<path style="fill:#76bcb8; stroke:none;" d="M86 241L87 242L86 241M680 241L680 247L681 247L680 241M829 241L830 242L829 241z"/>
<path style="fill:#aadce2; stroke:none;" d="M83 242L84 243L83 242z"/>
<path style="fill:#76bcb8; stroke:none;" d="M831 242L832 243L831 242z"/>
<path style="fill:#aadce2; stroke:none;" d="M832 242L833 243L832 242z"/>
<path style="fill:#76bcb8; stroke:none;" d="M81 243L82 244L81 243M833 243L834 244L833 243z"/>
<path style="fill:#aadce2; stroke:none;" d="M834 243L835 244L834 243M78 244L79 245L78 244z"/>
<path style="fill:#76bcb8; stroke:none;" d="M79 244L80 245L79 244M835 244L836 245L835 244z"/>
<path style="fill:#aadce2; stroke:none;" d="M836 244L837 245L836 244M76 245L77 246L76 245z"/>
<path style="fill:#76bcb8; stroke:none;" d="M77 245L78 246L77 245M688 245L688 251L689 251L688 245z"/>
<path style="fill:#aadce2; stroke:none;" d="M838 245L839 246L838 245M74 246L75 247L74 246z"/>
<path style="fill:#76bcb8; stroke:none;" d="M75 246L76 247L75 246M840 246L841 247L840 246z"/>
<path style="fill:#aadce2; stroke:none;" d="M72 247L73 248L72 247z"/>
<path style="fill:#76bcb8; stroke:none;" d="M842 247L843 248L842 247M70 248L71 249L70 248M844 248L845 249L844 248z"/>
<path style="fill:#aadce2; stroke:none;" d="M845 248L846 249L845 248M67 249L68 250L67 249z"/>
<path style="fill:#76bcb8; stroke:none;" d="M68 249L69 250L68 249M846 249L847 250L846 249z"/>
<path style="fill:#aadce2; stroke:none;" d="M847 249L848 250L847 249M65 250L66 251L65 250z"/>
<path style="fill:#76bcb8; stroke:none;" d="M66 250L67 251L66 250M848 250L849 251L848 250z"/>
<path style="fill:#aadce2; stroke:none;" d="M849 250L850 251L849 250M63 251L64 252L63 251z"/>
<path style="fill:#76bcb8; stroke:none;" d="M64 251L65 252L64 251z"/>
<path style="fill:#aadce2; stroke:none;" d="M688 251L688 256L689 256L688 251M851 251L852 252L851 251M61 252L62 253L61 252z"/>
<path style="fill:#76bcb8; stroke:none;" d="M853 252L854 253L853 252M59 253L60 254L59 253z"/>
<path style="fill:#aadce2; stroke:none;" d="M681 253L681 258L682 258L681 253z"/>
<path style="fill:#76bcb8; stroke:none;" d="M855 253L856 254L855 253z"/>
<path style="fill:#aadce2; stroke:none;" d="M56 254L57 255L56 254z"/>
<path style="fill:#76bcb8; stroke:none;" d="M57 254L58 255L57 254M857 254L858 255L857 254z"/>
<path style="fill:#aadce2; stroke:none;" d="M858 254L859 255L858 254M54 255L55 256L54 255z"/>
<path style="fill:#76bcb8; stroke:none;" d="M55 255L56 256L55 255M859 255L860 256L859 255z"/>
<path style="fill:#aadce2; stroke:none;" d="M860 255L861 256L860 255M52 256L53 257L52 256z"/>
<path style="fill:#76bcb8; stroke:none;" d="M53 256L54 257L53 256M861 256L862 257L861 256z"/>
<path style="fill:#aadce2; stroke:none;" d="M862 256L863 257L862 256M50 257L51 258L50 257M864 257L865 258L864 257z"/>
<path style="fill:#76bcb8; stroke:none;" d="M48 258L49 259L48 258M681 258L681 264L682 264L681 258M866 258L867 259L866 258z"/>
<path style="fill:#aadce2; stroke:none;" d="M45 259L46 260L45 259z"/>
<path style="fill:#76bcb8; stroke:none;" d="M46 259L47 260L46 259M868 259L869 260L868 259z"/>
<path style="fill:#aadce2; stroke:none;" d="M43 260L44 261L43 260z"/>
<path style="fill:#76bcb8; stroke:none;" d="M44 260L45 261L44 260M870 260L871 261L870 260z"/>
<path style="fill:#aadce2; stroke:none;" d="M871 260L872 261L871 260M41 261L42 262L41 261z"/>
<path style="fill:#76bcb8; stroke:none;" d="M42 261L43 262L42 261M872 261L873 262L872 261z"/>
<path style="fill:#aadce2; stroke:none;" d="M873 261L874 262L873 261M39 262L40 263L39 262z"/>
<path style="fill:#76bcb8; stroke:none;" d="M689 262L689 268L690 268L689 262M874 262L875 263L874 262z"/>
<path style="fill:#aadce2; stroke:none;" d="M875 262L876 263L875 262z"/>
<path style="fill:#76bcb8; stroke:none;" d="M37 263L38 264L37 263z"/>
<path style="fill:#aadce2; stroke:none;" d="M877 263L878 264L877 263M34 264L35 265L34 264z"/>
<path style="fill:#76bcb8; stroke:none;" d="M35 264L36 265L35 264z"/>
<path style="fill:#aadce2; stroke:none;" d="M879 264L880 265L879 264M32 265L33 266L32 265z"/>
<path style="fill:#76bcb8; stroke:none;" d="M33 265L34 266L33 265M881 265L882 266L881 265z"/>
<path style="fill:#aadce2; stroke:none;" d="M30 266L31 267L30 266z"/>
<path style="fill:#76bcb8; stroke:none;" d="M31 266L32 267L31 266M883 266L884 267L883 266z"/>
<path style="fill:#aadce2; stroke:none;" d="M884 266L885 267L884 266M28 267L29 268L28 267z"/>
<path style="fill:#76bcb8; stroke:none;" d="M885 267L886 268L885 267z"/>
<path style="fill:#aadce2; stroke:none;" d="M886 267L887 268L886 267z"/>
<path style="fill:#76bcb8; stroke:none;" d="M26 268L27 269L26 268z"/>
<path style="fill:#aadce2; stroke:none;" d="M689 268L689 273L690 273L689 268z"/>
<path style="fill:#76bcb8; stroke:none;" d="M887 268L888 269L887 268z"/>
<path style="fill:#aadce2; stroke:none;" d="M888 268L889 269L888 268z"/>
<path style="fill:#76bcb8; stroke:none;" d="M24 269L25 270L24 269z"/>
<path style="fill:#aadce2; stroke:none;" d="M890 269L891 270L890 269M21 270L20 272L21 270z"/>
<path style="fill:#76bcb8; stroke:none;" d="M22 270L23 271L22 270z"/>
<path style="fill:#aadce2; stroke:none;" d="M682 270L682 275L683 275L682 270M892 270L893 271L892 270z"/>
<path style="fill:#76bcb8; stroke:none;" d="M21 271L22 272L21 271M893 271L894 272L893 271z"/>
<path style="fill:#aadce2; stroke:none;" d="M23 272L24 273L23 272z"/>
<path style="fill:#76bcb8; stroke:none;" d="M24 272L25 273L24 272z"/>
<path style="fill:#aadce2; stroke:none;" d="M891 272L892 273L891 272M26 273L27 274L26 273z"/>
<path style="fill:#76bcb8; stroke:none;" d="M888 273L889 274L888 273z"/>
<path style="fill:#aadce2; stroke:none;" d="M889 273L890 274L889 273z"/>
<path style="fill:#76bcb8; stroke:none;" d="M29 274L30 275L29 274M886 274L887 275L886 274z"/>
<path style="fill:#aadce2; stroke:none;" d="M31 275L32 276L31 275z"/>
<path style="fill:#76bcb8; stroke:none;" d="M32 275L33 276L32 275M682 275L682 281L683 281L682 275z"/>
<path style="fill:#aadce2; stroke:none;" d="M884 275L885 276L884 275M34 276L35 277L34 276z"/>
<path style="fill:#76bcb8; stroke:none;" d="M35 276L36 277L35 276M881 276L882 277L881 276z"/>
<path style="fill:#aadce2; stroke:none;" d="M882 276L883 277L882 276M37 277L38 278L37 277z"/>
<path style="fill:#76bcb8; stroke:none;" d="M879 277L880 278L879 277z"/>
<path style="fill:#aadce2; stroke:none;" d="M880 277L881 278L880 277z"/>
<path style="fill:#76bcb8; stroke:none;" d="M40 278L41 279L40 278M877 278L878 279L877 278z"/>
<path style="fill:#aadce2; stroke:none;" d="M42 279L43 280L42 279z"/>
<path style="fill:#76bcb8; stroke:none;" d="M43 279L44 280L43 279M690 279L690 285L691 285L690 279z"/>
<path style="fill:#aadce2; stroke:none;" d="M875 279L876 280L875 279M45 280L46 281L45 280z"/>
<path style="fill:#76bcb8; stroke:none;" d="M46 280L47 281L46 280M872 280L873 281L872 280z"/>
<path style="fill:#aadce2; stroke:none;" d="M873 280L874 281L873 280M48 281L49 282L48 281z"/>
<path style="fill:#76bcb8; stroke:none;" d="M870 281L871 282L870 281z"/>
<path style="fill:#aadce2; stroke:none;" d="M871 281L872 282L871 281z"/>
<path style="fill:#76bcb8; stroke:none;" d="M51 282L52 283L51 282M868 282L869 283L868 282M54 283L55 284L54 283z"/>
<path style="fill:#aadce2; stroke:none;" d="M866 283L867 284L866 283M56 284L57 285L56 284z"/>
<path style="fill:#76bcb8; stroke:none;" d="M57 284L58 285L57 284M863 284L864 285L863 284z"/>
<path style="fill:#aadce2; stroke:none;" d="M864 284L865 285L864 284M59 285L60 286L59 285z"/>
<path style="fill:#76bcb8; stroke:none;" d="M60 285L61 286L60 285z"/>
<path style="fill:#aadce2; stroke:none;" d="M690 285L690 290L691 290L690 285z"/>
<path style="fill:#76bcb8; stroke:none;" d="M861 285L862 286L861 285z"/>
<path style="fill:#aadce2; stroke:none;" d="M862 285L863 286L862 285M62 286L63 287L62 286z"/>
<path style="fill:#76bcb8; stroke:none;" d="M859 286L860 287L859 286M65 287L66 288L65 287z"/>
<path style="fill:#aadce2; stroke:none;" d="M683 287L683 292L684 292L683 287M857 287L858 288L857 287M67 288L68 289L67 288z"/>
<path style="fill:#76bcb8; stroke:none;" d="M68 288L69 289L68 288M854 288L855 289L854 288z"/>
<path style="fill:#aadce2; stroke:none;" d="M855 288L856 289L855 288M70 289L71 290L70 289z"/>
<path style="fill:#76bcb8; stroke:none;" d="M71 289L72 290L71 289M852 289L853 290L852 289z"/>
<path style="fill:#aadce2; stroke:none;" d="M73 290L74 291L73 290M850 290L851 291L850 290z"/>
<path style="fill:#76bcb8; stroke:none;" d="M76 291L77 292L76 291M847 291L848 292L847 291z"/>
<path style="fill:#aadce2; stroke:none;" d="M848 291L849 292L848 291M78 292L79 293L78 292z"/>
<path style="fill:#76bcb8; stroke:none;" d="M79 292L80 293L79 292M683 292L683 298L684 298L683 292M845 292L846 293L845 292z"/>
<path style="fill:#aadce2; stroke:none;" d="M846 292L847 293L846 292M81 293L82 294L81 293z"/>
<path style="fill:#76bcb8; stroke:none;" d="M82 293L83 294L82 293M843 293L844 294L843 293z"/>
<path style="fill:#aadce2; stroke:none;" d="M84 294L85 295L84 294M841 294L842 295L841 294z"/>
<path style="fill:#76bcb8; stroke:none;" d="M87 295L88 296L87 295M838 295L839 296L838 295z"/>
<path style="fill:#aadce2; stroke:none;" d="M839 295L840 296L839 295M89 296L90 297L89 296z"/>
<path style="fill:#76bcb8; stroke:none;" d="M90 296L91 297L90 296M691 296L691 302L692 302L691 296M836 296L837 297L836 296z"/>
<path style="fill:#aadce2; stroke:none;" d="M837 296L838 297L837 296M92 297L93 298L92 297z"/>
<path style="fill:#76bcb8; stroke:none;" d="M93 297L94 298L93 297M834 297L835 298L834 297z"/>
<path style="fill:#aadce2; stroke:none;" d="M95 298L96 299L95 298M832 298L833 299L832 298M10 299L0 304C3.53933 316.125 6.88549 314.552 17 311L10 299z"/>
<path style="fill:#76bcb8; stroke:none;" d="M98 299L99 300L98 299M829 299L830 300L829 299z"/>
<path style="fill:#aadce2; stroke:none;" d="M830 299L831 300L830 299M100 300L101 301L100 300z"/>
<path style="fill:#76bcb8; stroke:none;" d="M101 300L102 301L101 300M827 300L828 301L827 300z"/>
<path style="fill:#aadce2; stroke:none;" d="M828 300L829 301L828 300M103 301L104 302L103 301z"/>
<path style="fill:#76bcb8; stroke:none;" d="M104 301L105 302L104 301M825 301L826 302L825 301z"/>
<path style="fill:#aadce2; stroke:none;" d="M106 302L107 303L106 302M691 302L691 306L692 306L691 302M823 302L824 303L823 302z"/>
<path style="fill:#76bcb8; stroke:none;" d="M109 303L110 304L109 303M820 303L821 304L820 303z"/>
<path style="fill:#aadce2; stroke:none;" d="M821 303L822 304L821 303M111 304L112 305L111 304z"/>
<path style="fill:#76bcb8; stroke:none;" d="M112 304L113 305L112 304z"/>
<path style="fill:#aadce2; stroke:none;" d="M684 304L684 307L685 307L684 304z"/>
<path style="fill:#76bcb8; stroke:none;" d="M818 304L819 305L818 304z"/>
<path style="fill:#aadce2; stroke:none;" d="M114 305L115 306L114 305z"/>
<path style="fill:#76bcb8; stroke:none;" d="M115 305L116 306L115 305z"/>
<path style="fill:#aadce2; stroke:none;" d="M816 305L817 306L816 305M117 306L118 307L117 306z"/>
<path style="fill:#76bcb8; stroke:none;" d="M118 306L119 307L118 306M683 306L684 307L683 306z"/>
<path style="fill:#aadce2; stroke:none;" d="M692 306L692 307L697 307L692 306z"/>
<path style="fill:#76bcb8; stroke:none;" d="M697 306L697 307L700 307L697 306M813 306L814 307L813 306z"/>
<path style="fill:#aadce2; stroke:none;" d="M814 306L815 307L814 306M120 307L121 308L120 307z"/>
<path style="fill:#76bcb8; stroke:none;" d="M679 307L680 308L679 307z"/>
<path style="fill:#aadce2; stroke:none;" d="M680.667 307.333L681.333 307.667L680.667 307.333M701.667 307.333L702.333 307.667L701.667 307.333z"/>
<path style="fill:#76bcb8; stroke:none;" d="M703.667 307.333L704.333 307.667L703.667 307.333M811 307L812 308L811 307z"/>
<path style="fill:#aadce2; stroke:none;" d="M812 307L813 308L812 307z"/>
<path style="fill:#76bcb8; stroke:none;" d="M123 308L124 309L123 308M675.667 308.333L676.333 308.667L675.667 308.333z"/>
<path style="fill:#aadce2; stroke:none;" d="M677 308L678 309L677 308M705.667 308.333L706.333 308.667L705.667 308.333z"/>
<path style="fill:#76bcb8; stroke:none;" d="M707 308L708 309L707 308M809 308L810 309L809 308z"/>
<path style="fill:#aadce2; stroke:none;" d="M125 309L126 310L125 309z"/>
<path style="fill:#76bcb8; stroke:none;" d="M126 309L127 310L126 309M673 309L674 310L673 309z"/>
<path style="fill:#aadce2; stroke:none;" d="M674 309L675 310L674 309M708 309L709 310L708 309z"/>
<path style="fill:#76bcb8; stroke:none;" d="M709.667 309.333L710.333 309.667L709.667 309.333z"/>
<path style="fill:#aadce2; stroke:none;" d="M807 309L808 310L807 309M128 310L129 311L128 310z"/>
<path style="fill:#76bcb8; stroke:none;" d="M129 310L130 311L129 310M670 310L671 311L670 310z"/>
<path style="fill:#aadce2; stroke:none;" d="M671 310L672 311L671 310M711 310L712 311L711 310z"/>
<path style="fill:#76bcb8; stroke:none;" d="M712 310L713 311L712 310M804 310L805 311L804 310z"/>
<path style="fill:#aadce2; stroke:none;" d="M805 310L806 311L805 310M131 311L132 312L131 311z"/>
<path style="fill:#76bcb8; stroke:none;" d="M668 311L669 312L668 311z"/>
<path style="fill:#aadce2; stroke:none;" d="M669 311L670 312L669 311M713 311L714 312L713 311z"/>
<path style="fill:#76bcb8; stroke:none;" d="M714 311L715 312L714 311M802 311L803 312L802 311z"/>
<path style="fill:#aadce2; stroke:none;" d="M803 311L804 312L803 311M55 312L56 313L55 312z"/>
<path style="fill:#76bcb8; stroke:none;" d="M134 312L135 313L134 312z"/>
<path style="fill:#aadce2; stroke:none;" d="M667 312L668 313L667 312M715 312L716 313L715 312z"/>
<path style="fill:#76bcb8; stroke:none;" d="M800 312L801 313L800 312z"/>
<path style="fill:#aadce2; stroke:none;" d="M136 313L137 314L136 313z"/>
<path style="fill:#76bcb8; stroke:none;" d="M137 313L138 314L137 313M665 313L666 314L665 313z"/>
<path style="fill:#aadce2; stroke:none;" d="M666 313L667 314L666 313M716 313L717 314L716 313z"/>
<path style="fill:#76bcb8; stroke:none;" d="M717 313L718 314L717 313z"/>
<path style="fill:#aadce2; stroke:none;" d="M798 313L799 314L798 313M54 314L18 388L19 388C29.4393 370.946 39.5424 353.409 47.4213 335C49.8197 329.396 55.6854 320.077 54 314M139 314L140 315L139 314z"/>
<path style="fill:#76bcb8; stroke:none;" d="M140 314L141 315L140 314M664 314L665 315L664 314M718 314L719 315L718 314M795 314L796 315L795 314z"/>
<path style="fill:#aadce2; stroke:none;" d="M796 314L797 315L796 314M142 315L143 316L142 315M663 315L664 316L663 315M719 315L720 316L719 315z"/>
<path style="fill:#76bcb8; stroke:none;" d="M793 315L794 316L793 315z"/>
<path style="fill:#aadce2; stroke:none;" d="M794 315L795 316L794 315z"/>
<path style="fill:#76bcb8; stroke:none;" d="M145 316L146 317L145 316M661 316L662 317L661 316z"/>
<path style="fill:#aadce2; stroke:none;" d="M662 316L663 317L662 316M720 316L721 317L720 316z"/>
<path style="fill:#76bcb8; stroke:none;" d="M791 316L792 317L791 316z"/>
<path style="fill:#aadce2; stroke:none;" d="M147 317L148 318L147 317z"/>
<path style="fill:#76bcb8; stroke:none;" d="M148 317L149 318L148 317z"/>
<path style="fill:#aadce2; stroke:none;" d="M661 317L662 318L661 317M721 317L722 318L721 317M789 317L790 318L789 317M150 318L151 319L150 318z"/>
<path style="fill:#76bcb8; stroke:none;" d="M151 318L152 319L151 318z"/>
<path style="fill:#aadce2; stroke:none;" d="M660 318L661 319L660 318M722 318L723 319L722 318z"/>
<path style="fill:#76bcb8; stroke:none;" d="M786 318L787 319L786 318z"/>
<path style="fill:#aadce2; stroke:none;" d="M787 318L788 319L787 318M153 319L154 320L153 319z"/>
<path style="fill:#76bcb8; stroke:none;" d="M659 319L660 320L659 319z"/>
<path style="fill:#aadce2; stroke:none;" d="M723 319L724 320L723 319z"/>
<path style="fill:#76bcb8; stroke:none;" d="M784 319L785 320L784 319M156 320L157 321L156 320M658 320L659 321L658 320M724 320L725 321L724 320z"/>
<path style="fill:#aadce2; stroke:none;" d="M782 320L783 321L782 320M158 321L159 322L158 321z"/>
<path style="fill:#76bcb8; stroke:none;" d="M159 321L160 322L159 321z"/>
<path style="fill:#aadce2; stroke:none;" d="M658 321L659 322L658 321M724 321L725 322L724 321z"/>
<path style="fill:#76bcb8; stroke:none;" d="M779 321L780 322L779 321z"/>
<path style="fill:#aadce2; stroke:none;" d="M780 321L781 322L780 321M161 322L162 323L161 322z"/>
<path style="fill:#76bcb8; stroke:none;" d="M162 322L163 323L162 322M657 322L658 323L657 322M725 322L726 323L725 322M777 322L778 323L777 322z"/>
<path style="fill:#aadce2; stroke:none;" d="M778 322L779 323L778 322M164 323L165 324L164 323M657 323L658 324L657 323z"/>
<path style="fill:#76bcb8; stroke:none;" d="M775 323L776 324L775 323M167 324L168 325L167 324M656 324L657 325L656 324M726 324L727 325L726 324z"/>
<path style="fill:#aadce2; stroke:none;" d="M773 324L774 325L773 324M169 325L170 326L169 325z"/>
<path style="fill:#76bcb8; stroke:none;" d="M170 325L171 326L170 325z"/>
<path style="fill:#aadce2; stroke:none;" d="M656 325L657 326L656 325M726 325L727 326L726 325z"/>
<path style="fill:#76bcb8; stroke:none;" d="M770 325L771 326L770 325z"/>
<path style="fill:#aadce2; stroke:none;" d="M771 325L772 326L771 325M172 326L173 327L172 326z"/>
<path style="fill:#76bcb8; stroke:none;" d="M173 326L174 327L173 326M655 326L655 329L656 329L655 326M727.333 326.667L727.667 327.333L727.333 326.667M768 326L769 327L768 326z"/>
<path style="fill:#aadce2; stroke:none;" d="M769 326L770 327L769 326M175 327L176 328L175 327z"/>
<path style="fill:#76bcb8; stroke:none;" d="M176 327L177 328L176 327M766 327L767 328L766 327z"/>
<path style="fill:#aadce2; stroke:none;" d="M178 328L179 329L178 328M727 328L727 334L728 334L727 328M764 328L765 329L764 328z"/>
<path style="fill:#76bcb8; stroke:none;" d="M181 329L182 330L181 329z"/>
<path style="fill:#aadce2; stroke:none;" d="M655 329L655 334L656 334L655 329z"/>
<path style="fill:#76bcb8; stroke:none;" d="M761 329L762 330L761 329z"/>
<path style="fill:#aadce2; stroke:none;" d="M762 329L763 330L762 329M982 329C981.919 335.833 979.834 337.919 973 338L973 341C979.833 341.081 981.919 343.167 982 350L985 350L985 341L994 341L994 338C987.167 337.919 985.081 335.833 985 329L982 329M183 330L184 331L183 330z"/>
<path style="fill:#76bcb8; stroke:none;" d="M184 330L185 331L184 330M759 330L760 331L759 330z"/>
<path style="fill:#aadce2; stroke:none;" d="M760 330L761 331L760 330M186 331L187 332L186 331z"/>
<path style="fill:#76bcb8; stroke:none;" d="M187 331L188 332L187 331M757 331L758 332L757 331z"/>
<path style="fill:#aadce2; stroke:none;" d="M189 332L190 333L189 332M755 332L756 333L755 332z"/>
<path style="fill:#76bcb8; stroke:none;" d="M192 333L193 334L192 333M752 333L753 334L752 333z"/>
<path style="fill:#aadce2; stroke:none;" d="M753 333L754 334L753 333M194 334L195 335L194 334z"/>
<path style="fill:#76bcb8; stroke:none;" d="M195 334L196 335L195 334M655.333 334.667L655.667 335.333L655.333 334.667M727.333 334.667L727.667 335.333L727.333 334.667M750 334L751 335L750 334z"/>
<path style="fill:#aadce2; stroke:none;" d="M197 335L198 336L197 335z"/>
<path style="fill:#76bcb8; stroke:none;" d="M198 335L199 336L198 335z"/>
<path style="fill:#aadce2; stroke:none;" d="M748 335L749 336L748 335M200 336L201 337L200 336M656.333 336.667L656.667 337.333L656.333 336.667z"/>
<path style="fill:#76bcb8; stroke:none;" d="M745 336L746 337L745 336z"/>
<path style="fill:#aadce2; stroke:none;" d="M746 336L747 337L746 336z"/>
<path style="fill:#76bcb8; stroke:none;" d="M203 337L204 338L203 337z"/>
<path style="fill:#aadce2; stroke:none;" d="M726 337L727 338L726 337z"/>
<path style="fill:#76bcb8; stroke:none;" d="M743 337L744 338L743 337z"/>
<path style="fill:#aadce2; stroke:none;" d="M744 337L745 338L744 337M205 338L206 339L205 338z"/>
<path style="fill:#76bcb8; stroke:none;" d="M206 338L207 339L206 338M656 338L657 339L656 338M726 338L727 339L726 338M741 338L742 339L741 338z"/>
<path style="fill:#aadce2; stroke:none;" d="M208 339L209 340L208 339z"/>
<path style="fill:#76bcb8; stroke:none;" d="M209 339L210 340L209 339z"/>
<path style="fill:#aadce2; stroke:none;" d="M657 339L658 340L657 339M725 339L726 340L725 339M739 339L740 340L739 339M211 340L212 341L211 340z"/>
<path style="fill:#76bcb8; stroke:none;" d="M657 340L658 341L657 340M725 340L726 341L725 340M736 340L737 341L736 340z"/>
<path style="fill:#aadce2; stroke:none;" d="M737 340L738 341L737 340z"/>
<path style="fill:#76bcb8; stroke:none;" d="M214 341L215 342L214 341z"/>
<path style="fill:#aadce2; stroke:none;" d="M658 341L659 342L658 341M724 341L725 342L724 341z"/>
<path style="fill:#76bcb8; stroke:none;" d="M734 341L735 342L734 341z"/>
<path style="fill:#aadce2; stroke:none;" d="M735 341L736 342L735 341M216 342L217 343L216 342z"/>
<path style="fill:#76bcb8; stroke:none;" d="M217 342L218 343L217 342z"/>
<path style="fill:#aadce2; stroke:none;" d="M659 342L665 348L659 342M723 342L722 344L723 342z"/>
<path style="fill:#76bcb8; stroke:none;" d="M732 342L733 343L732 342z"/>
<path style="fill:#aadce2; stroke:none;" d="M219 343L220 344L219 343z"/>
<path style="fill:#76bcb8; stroke:none;" d="M220 343L221 344L220 343M659 343L660 344L659 343M723 343L724 344L723 343z"/>
<path style="fill:#aadce2; stroke:none;" d="M730 343L731 344L730 343M222 344L223 345L222 344z"/>
<path style="fill:#76bcb8; stroke:none;" d="M660 344L661 345L660 344M722 344L723 345L722 344M727 344L728 345L727 344z"/>
<path style="fill:#aadce2; stroke:none;" d="M728 344L729 345L728 344z"/>
<path style="fill:#76bcb8; stroke:none;" d="M225 345L226 346L225 345M661 345L662 346L661 345M721 345L722 346L721 345M725 345L726 346L725 345z"/>
<path style="fill:#aadce2; stroke:none;" d="M726 345L727 346L726 345M227 346L228 347L227 346z"/>
<path style="fill:#76bcb8; stroke:none;" d="M228 346L229 347L228 346M662 346L663 347L662 346M720 346L721 347L720 346M723 346L724 347L723 346z"/>
<path style="fill:#aadce2; stroke:none;" d="M230 347L231 348L230 347z"/>
<path style="fill:#76bcb8; stroke:none;" d="M231 347L232 348L231 347M663 347L664 348L663 347z"/>
<path style="fill:#aadce2; stroke:none;" d="M717 348L717 349L720 349L717 348z"/>
<path style="fill:#76bcb8; stroke:none;" d="M719 347L720 348L719 347z"/>
<path style="fill:#aadce2; stroke:none;" d="M721 347L722 348L721 347M233 348L234 349L233 348z"/>
<path style="fill:#76bcb8; stroke:none;" d="M234 348L235 349L234 348z"/>
<path style="fill:#aadce2; stroke:none;" d="M665 348L666 349L665 348z"/>
<path style="fill:#76bcb8; stroke:none;" d="M718 348L719 349L718 348z"/>
<path style="fill:#aadce2; stroke:none;" d="M236 349L237 350L236 349z"/>
<path style="fill:#76bcb8; stroke:none;" d="M666 349L668 351L666 349z"/>
<path style="fill:#aadce2; stroke:none;" d="M667 349L668 350L667 349M715.667 349.333L716.333 349.667L715.667 349.333M238 350L239 351L238 350z"/>
<path style="fill:#76bcb8; stroke:none;" d="M239 350L240 351L239 350z"/>
<path style="fill:#aadce2; stroke:none;" d="M668 350L669 351L668 350M714 350L715 351L714 350M241 351L242 352L241 351z"/>
<path style="fill:#76bcb8; stroke:none;" d="M242 351L243 352L242 351M669 351L670 352L669 351z"/>
<path style="fill:#aadce2; stroke:none;" d="M670 351L671 352L670 351M244 352L245 353L244 352z"/>
<path style="fill:#76bcb8; stroke:none;" d="M245 352L246 353L245 352M671 352L672 353L671 352z"/>
<path style="fill:#aadce2; stroke:none;" d="M672.667 352.333L673.333 352.667L672.667 352.333z"/>
<path style="fill:#76bcb8; stroke:none;" d="M247.333 353.667L247.667 354.333L247.333 353.667M674 353L675 354L674 353z"/>
<path style="fill:#aadce2; stroke:none;" d="M675 353L676 354L675 353M707 353L708 354L707 353z"/>
<path style="fill:#76bcb8; stroke:none;" d="M677.667 354.333L678.333 354.667L677.667 354.333z"/>
<path style="fill:#aadce2; stroke:none;" d="M679 354L680 355L679 354M703 356L706 355L703 356z"/>
<path style="fill:#76bcb8; stroke:none;" d="M681.667 355.333L682.333 355.667L681.667 355.333z"/>
<path style="fill:#aadce2; stroke:none;" d="M683 355L683 356L686 356L683 355M697 355L697 356L700 356L697 355z"/>
<path style="fill:#76bcb8; stroke:none;" d="M700 357L703 356L700 357M691.667 356.333L692.333 356.667L691.667 356.333z"/>
<path style="fill:#aadce2; stroke:none;" d="M701 356L702 357L701 356M246.333 357.667L246.667 358.333L246.333 357.667z"/>
<path style="fill:#76bcb8; stroke:none;" d="M698 357L699 358L698 357z"/>
<path style="fill:#aadce2; stroke:none;" d="M696 358L697 359L696 358z"/>
<path style="fill:#76bcb8; stroke:none;" d="M246.333 359.667L246.667 360.333L246.333 359.667M693 359L694 360L693 359z"/>
<path style="fill:#aadce2; stroke:none;" d="M694 359L695 360L694 359z"/>
<path style="fill:#76bcb8; stroke:none;" d="M691 360L692 361L691 360z"/>
<path style="fill:#aadce2; stroke:none;" d="M692 360L693 361L692 360z"/>
<path style="fill:#76bcb8; stroke:none;" d="M689 361L690 362L689 361z"/>
<path style="fill:#aadce2; stroke:none;" d="M687 362L688 363L687 362M245.333 363.667L245.667 364.333L245.333 363.667z"/>
<path style="fill:#76bcb8; stroke:none;" d="M684 363L685 364L684 363z"/>
<path style="fill:#aadce2; stroke:none;" d="M685 363L686 364L685 363z"/>
<path style="fill:#76bcb8; stroke:none;" d="M682 364L683 365L682 364M245.333 365.667L245.667 366.333L245.333 365.667z"/>
<path style="fill:#aadce2; stroke:none;" d="M680 365L681 366L680 365M679.333 367.667L679.667 368.333L679.333 367.667M244 369L244 372L245 372L244 369z"/>
<path style="fill:#76bcb8; stroke:none;" d="M679.333 369.667L679.667 370.333L679.333 369.667M244 372L245 373L244 372z"/>
<path style="fill:#aadce2; stroke:none;" d="M680.333 374.667L680.667 375.333L680.333 374.667M243 375L243 378L244 378L243 375z"/>
<path style="fill:#76bcb8; stroke:none;" d="M680.333 376.667L680.667 377.333L680.333 376.667M243 378L244 379L243 378z"/>
<path style="fill:#aadce2; stroke:none;" d="M681 381L682 382L681 381M242.333 382.667L242.667 383.333L242.333 382.667z"/>
<path style="fill:#76bcb8; stroke:none;" d="M681 382L681 385L682 385L681 382M242 384L243 385L242 384z"/>
<path style="fill:#aadce2; stroke:none;" d="M241.333 388.667L241.667 389.333L241.333 388.667M682 388L683 389L682 388z"/>
<path style="fill:#76bcb8; stroke:none;" d="M682 389L682 392L683 392L682 389M241 390L242 391L241 390z"/>
<path style="fill:#aadce2; stroke:none;" d="M18 391L18 392L21 393L18 391M22 393L22 394L25 395L22 393M240.333 394.667L240.667 395.333L240.333 394.667M26 395L26 396L29 396L26 395M683 395L684 396L683 395z"/>
<path style="fill:#76bcb8; stroke:none;" d="M240 396L241 397L240 396M683 396L683 399L684 399L683 396z"/>
<path style="fill:#aadce2; stroke:none;" d="M30 397L30 398L33 399L30 397M34 399L34 400L37 401L34 399M239 399L239 402L240 402L239 399M38 401L38 402L41 403L38 401z"/>
<path style="fill:#76bcb8; stroke:none;" d="M239 402L240 403L239 402z"/>
<path style="fill:#aadce2; stroke:none;" d="M684 402L685 403L684 402M42 403L42 404L45 405L42 403z"/>
<path style="fill:#76bcb8; stroke:none;" d="M684 403L684 406L685 406L684 403z"/>
<path style="fill:#aadce2; stroke:none;" d="M46 405L46 406L49 407L46 405M238.333 406.667L238.667 407.333L238.333 406.667M50 407L50 408L53 409L50 407z"/>
<path style="fill:#76bcb8; stroke:none;" d="M238 408L239 409L238 408z"/>
<path style="fill:#aadce2; stroke:none;" d="M685.333 408.667L685.667 409.333L685.333 408.667M54 409L54 410L57 411L54 409z"/>
<path style="fill:#76bcb8; stroke:none;" d="M685 410L685 413L686 413L685 410z"/>
<path style="fill:#aadce2; stroke:none;" d="M58 411L58 412L61 413L58 411M237.333 412.667L237.667 413.333L237.333 412.667M62 413L62 414L65 415L62 413z"/>
<path style="fill:#76bcb8; stroke:none;" d="M237 414L238 415L237 414z"/>
<path style="fill:#aadce2; stroke:none;" d="M66 415L66 416L69 417L66 415M686.333 415.667L686.667 416.333L686.333 415.667M70 417L70 418L73 419L70 417z"/>
<path style="fill:#76bcb8; stroke:none;" d="M686.333 417.667L686.667 418.333L686.333 417.667z"/>
<path style="fill:#aadce2; stroke:none;" d="M236.333 418.667L236.667 419.333L236.333 418.667M74 419L74 420L77 421L74 419z"/>
<path style="fill:#76bcb8; stroke:none;" d="M236 420L237 421L236 420z"/>
<path style="fill:#aadce2; stroke:none;" d="M78 421L78 422L81 422L78 421M687.333 422.667L687.667 423.333L687.333 422.667M82 423L82 424L85 424L82 423M235.333 424.667L235.667 425.333L235.333 424.667z"/>
<path style="fill:#76bcb8; stroke:none;" d="M687.333 424.667L687.667 425.333L687.333 424.667z"/>
<path style="fill:#aadce2; stroke:none;" d="M87.6667 425.333L88.3333 425.667L87.6667 425.333z"/>
<path style="fill:#76bcb8; stroke:none;" d="M235 426L236 427L235 426z"/>
<path style="fill:#aadce2; stroke:none;" d="M91.6667 427.333L92.3333 427.667L91.6667 427.333M95.6667 429.333L96.3333 429.667L95.6667 429.333M688.333 429.667L688.667 430.333L688.333 429.667M234.333 430.667L234.667 431.333L234.333 430.667M99.6667 431.333L100.333 431.667L99.6667 431.333z"/>
<path style="fill:#76bcb8; stroke:none;" d="M688.333 431.667L688.667 432.333L688.333 431.667M234 432L235 433L234 432z"/>
<path style="fill:#aadce2; stroke:none;" d="M103.667 433.333L104.333 433.667L103.667 433.333M107.667 435.333L108.333 435.667L107.667 435.333M233.333 436.667L233.667 437.333L233.333 436.667M689.333 436.667L689.667 437.333L689.333 436.667M111.667 437.333L112.333 437.667L111.667 437.333z"/>
<path style="fill:#76bcb8; stroke:none;" d="M233.333 438.667L233.667 439.333L233.333 438.667M689.333 438.667L689.667 439.333L689.333 438.667z"/>
<path style="fill:#aadce2; stroke:none;" d="M115.667 439.333L116.333 439.667L115.667 439.333M119.667 441.333L120.333 441.667L119.667 441.333M232.333 442.667L232.667 443.333L232.333 442.667M123.667 443.333L124.333 443.667L123.667 443.333M690.333 443.667L690.667 444.333L690.333 443.667z"/>
<path style="fill:#76bcb8; stroke:none;" d="M232.333 444.667L232.667 445.333L232.333 444.667z"/>
<path style="fill:#aadce2; stroke:none;" d="M127 445L127 446L130 446L127 445z"/>
<path style="fill:#76bcb8; stroke:none;" d="M690.333 445.667L690.667 446.333L690.333 445.667z"/>
<path style="fill:#aadce2; stroke:none;" d="M131.667 447.333L132.333 447.667L131.667 447.333M231.333 448.667L231.667 449.333L231.333 448.667M135 449L135 450L138 450L135 449z"/>
<path style="fill:#76bcb8; stroke:none;" d="M231.333 450.667L231.667 451.333L231.333 450.667z"/>
<path style="fill:#aadce2; stroke:none;" d="M691.333 450.667L691.667 451.333L691.333 450.667M139.667 451.333L140.333 451.667L139.667 451.333z"/>
<path style="fill:#76bcb8; stroke:none;" d="M691.333 452.667L691.667 453.333L691.333 452.667z"/>
<path style="fill:#aadce2; stroke:none;" d="M143 453L143 454L146 454L143 453M230.333 454.667L230.667 455.333L230.333 454.667M147.667 455.333L148.333 455.667L147.667 455.333z"/>
<path style="fill:#76bcb8; stroke:none;" d="M230.333 456.667L230.667 457.333L230.333 456.667z"/>
<path style="fill:#aadce2; stroke:none;" d="M151 457L151 458L154 458L151 457M692.333 457.667L692.667 458.333L692.333 457.667M155.667 459.333L156.333 459.667L155.667 459.333z"/>
<path style="fill:#76bcb8; stroke:none;" d="M692.333 459.667L692.667 460.333L692.333 459.667z"/>
<path style="fill:#aadce2; stroke:none;" d="M159 461L159 462L162 462L159 461M229 461L230 462L229 461z"/>
<path style="fill:#76bcb8; stroke:none;" d="M229.333 462.667L229.667 463.333L229.333 462.667z"/>
<path style="fill:#aadce2; stroke:none;" d="M163.667 463.333L164.333 463.667L163.667 463.333M693.333 464.667L693.667 465.333L693.333 464.667M167 465L167 466L170 466L167 465z"/>
<path style="fill:#76bcb8; stroke:none;" d="M693.333 466.667L693.667 467.333L693.333 466.667z"/>
<path style="fill:#aadce2; stroke:none;" d="M171.667 467.333L172.333 467.667L171.667 467.333M228 467L229 468L228 467z"/>
<path style="fill:#76bcb8; stroke:none;" d="M228.333 468.667L228.667 469.333L228.333 468.667z"/>
<path style="fill:#aadce2; stroke:none;" d="M175 469L175 470L178 470L175 469M179.667 471.333L180.333 471.667L179.667 471.333M694.333 471.667L694.667 472.333L694.333 471.667M183 473L183 474L186 474L183 473M227 473L228 474L227 473z"/>
<path style="fill:#76bcb8; stroke:none;" d="M694.333 473.667L694.667 474.333L694.333 473.667M227.333 474.667L227.667 475.333L227.333 474.667z"/>
<path style="fill:#aadce2; stroke:none;" d="M187.667 475.333L188.333 475.667L187.667 475.333M191 477L191 478L194 478L191 477M695.333 478.667L695.667 479.333L695.333 478.667M195.667 479.333L196.333 479.667L195.667 479.333M226 479L227 480L226 479z"/>
<path style="fill:#76bcb8; stroke:none;" d="M226.333 480.667L226.667 481.333L226.333 480.667M695.333 480.667L695.667 481.333L695.333 480.667z"/>
<path style="fill:#aadce2; stroke:none;" d="M199 481L199 482L202 482L199 481M203.667 483.333L204.333 483.667L203.667 483.333M226 484L227 485L226 484M695 484L696 485L695 484M207 485L207 486L210 486L207 485z"/>
<path style="fill:#76bcb8; stroke:none;" d="M227 485L228 486L227 485z"/>
<path style="fill:#aadce2; stroke:none;" d="M694 485L695 486L694 485M227 486L228 487L227 486z"/>
<path style="fill:#76bcb8; stroke:none;" d="M693 486L694 487L693 486z"/>
<path style="fill:#aadce2; stroke:none;" d="M211 487L211 488L214 488L211 487z"/>
<path style="fill:#76bcb8; stroke:none;" d="M228 487L229 488L228 487M692 487L693 488L692 487M229 488L230 489L229 488M691 488L692 489L691 488z"/>
<path style="fill:#aadce2; stroke:none;" d="M215 489L215 490L218 490L215 489M690 489L691 490L690 489M689 490L690 491L689 490M219.667 491.333L220.333 491.667L219.667 491.333z"/>
<path style="fill:#76bcb8; stroke:none;" d="M232 491L233 492L232 491M687 491L688 492L687 491M233 492L234 493L233 492M686 492L687 493L686 492z"/>
<path style="fill:#aadce2; stroke:none;" d="M223 493L223 494L226 494L223 493M234 493L235 494L234 493M685 493L686 494L685 493M235 494L236 495L235 494z"/>
<path style="fill:#76bcb8; stroke:none;" d="M236 494L237 495L236 494z"/>
<path style="fill:#aadce2; stroke:none;" d="M683 494L684 495L683 494M227 495L227 496L230 496L227 495z"/>
<path style="fill:#76bcb8; stroke:none;" d="M237 495L238 496L237 495M681 495L682 496L681 495z"/>
<path style="fill:#aadce2; stroke:none;" d="M238 496L239 497L238 496z"/>
<path style="fill:#76bcb8; stroke:none;" d="M239 496L240 497L239 496M679 496L680 497L679 496z"/>
<path style="fill:#aadce2; stroke:none;" d="M232.667 497.333L233.333 497.667L232.667 497.333z"/>
<path style="fill:#76bcb8; stroke:none;" d="M240 497L241 498L240 497M677 497L678 498L677 497z"/>
<path style="fill:#aadce2; stroke:none;" d="M678 497L679 498L678 497M241 498L242 499L241 498z"/>
<path style="fill:#76bcb8; stroke:none;" d="M242 498L243 499L242 498M675 498L676 499L675 498z"/>
<path style="fill:#aadce2; stroke:none;" d="M236 499L237 500L236 499M243 499L244 500L243 499z"/>
<path style="fill:#76bcb8; stroke:none;" d="M244 499L245 500L244 499M673 499L674 500L673 499z"/>
<path style="fill:#aadce2; stroke:none;" d="M245 500L246 501L245 500z"/>
<path style="fill:#76bcb8; stroke:none;" d="M246 500L247 501L246 500z"/>
<path style="fill:#aadce2; stroke:none;" d="M671 500L672 501L671 500M240.667 501.333L241.333 501.667L240.667 501.333M247 501L248 502L247 501z"/>
<path style="fill:#76bcb8; stroke:none;" d="M668 501L669 502L668 501z"/>
<path style="fill:#aadce2; stroke:none;" d="M669 501L670 502L669 501M249 502L250 503L249 502z"/>
<path style="fill:#76bcb8; stroke:none;" d="M250 502L251 503L250 502M666 502L667 503L666 502z"/>
<path style="fill:#aadce2; stroke:none;" d="M244.667 503.333L245.333 503.667L244.667 503.333M251 503L252 504L251 503z"/>
<path style="fill:#76bcb8; stroke:none;" d="M252 503L253 504L252 503M663 503L664 504L663 503z"/>
<path style="fill:#aadce2; stroke:none;" d="M664 503L665 504L664 503z"/>
<path style="fill:#76bcb8; stroke:none;" d="M254 504L255 505L254 504M661 504L662 505L661 504z"/>
<path style="fill:#aadce2; stroke:none;" d="M248.667 505.333L249.333 505.667L248.667 505.333M256 505L257 506L256 505z"/>
<path style="fill:#76bcb8; stroke:none;" d="M257 505L258 506L257 505M658 505L659 506L658 505z"/>
<path style="fill:#aadce2; stroke:none;" d="M659 505L660 506L659 505M258 506L259 507L258 506z"/>
<path style="fill:#76bcb8; stroke:none;" d="M259 506L260 507L259 506M655 506L656 507L655 506z"/>
<path style="fill:#aadce2; stroke:none;" d="M656 506L657 507L656 506M252 507L252 508L255 509L252 507z"/>
<path style="fill:#f46147; stroke:none;" d="M260 507L259 509L259 510L263 511C256.719 525.092 241.945 538.133 232.081 550C229.157 553.518 221.387 560.183 221.345 564.985C221.293 570.965 236.05 580.083 241 582L259 560L252 589L276.57 593.357L282.127 577L294 527L301 530L306 518L260 507z"/>
<path style="fill:#76bcb8; stroke:none;" d="M262 507L263 508L262 507M652 507L653 508L652 507z"/>
<path style="fill:#aadce2; stroke:none;" d="M653 507L654 508L653 507M259 508L260 509L259 508z"/>
<path style="fill:#76bcb8; stroke:none;" d="M648.667 508.333L649.333 508.667L648.667 508.333z"/>
<path style="fill:#aadce2; stroke:none;" d="M650 508L651 509L650 508M256.667 509.333L257.333 509.667L256.667 509.333z"/>
<path style="fill:#76bcb8; stroke:none;" d="M645 509L646 510L645 509z"/>
<path style="fill:#aadce2; stroke:none;" d="M646 509L647 510L646 509M260 510L263 512L263 511L260 510z"/>
<path style="fill:#76bcb8; stroke:none;" d="M641 510L642 511L641 510z"/>
<path style="fill:#aadce2; stroke:none;" d="M642.667 510.333L643.333 510.667L642.667 510.333z"/>
<path style="fill:#76bcb8; stroke:none;" d="M637 511L638 512L637 511z"/>
<path style="fill:#aadce2; stroke:none;" d="M638.667 511.333L639.333 511.667L638.667 511.333z"/>
<path style="fill:#76bcb8; stroke:none;" d="M633 512L634 513L633 512z"/>
<path style="fill:#aadce2; stroke:none;" d="M634 512L635 513L634 512M262 513L263 514L262 513z"/>
<path style="fill:#76bcb8; stroke:none;" d="M629 513L630 514L629 513z"/>
<path style="fill:#aadce2; stroke:none;" d="M630 513L631 514L630 513z"/>
<path style="fill:#76bcb8; stroke:none;" d="M624 514L625 515L624 514z"/>
<path style="fill:#aadce2; stroke:none;" d="M625.667 514.333L626.333 514.667L625.667 514.333z"/>
<path style="fill:#76bcb8; stroke:none;" d="M618.667 515.333L619.333 515.667L618.667 515.333z"/>
<path style="fill:#aadce2; stroke:none;" d="M620 515L621 516L620 515z"/>
<path style="fill:#76bcb8; stroke:none;" d="M613.667 516.333L614.333 516.667L613.667 516.333z"/>
<path style="fill:#aadce2; stroke:none;" d="M615 516L616 517L615 516z"/>
<path style="fill:#76bcb8; stroke:none;" d="M607.667 517.333L608.333 517.667L607.667 517.333z"/>
<path style="fill:#aadce2; stroke:none;" d="M609.667 517.333L610.333 517.667L609.667 517.333M258 518L259 519L258 518z"/>
<path style="fill:#76bcb8; stroke:none;" d="M306 518L306 519L309 519L306 518M601.667 518.333L602.333 518.667L601.667 518.333z"/>
<path style="fill:#aadce2; stroke:none;" d="M603.667 518.333L604.333 518.667L603.667 518.333M257 519L258 520L257 519M311.667 519.333L312.333 519.667L311.667 519.333z"/>
<path style="fill:#76bcb8; stroke:none;" d="M313.667 519.333L314.333 519.667L313.667 519.333M594.667 519.333L595.333 519.667L594.667 519.333z"/>
<path style="fill:#aadce2; stroke:none;" d="M596.667 519.333L597.333 519.667L596.667 519.333M305 520L306 521L305 520M317.667 520.333L318.333 520.667L317.667 520.333z"/>
<path style="fill:#76bcb8; stroke:none;" d="M319.667 520.333L320.333 520.667L319.667 520.333M588.667 520.333L589.333 520.667L588.667 520.333z"/>
<path style="fill:#aadce2; stroke:none;" d="M590.667 520.333L591.333 520.667L590.667 520.333M324.667 521.333L325.333 521.667L324.667 521.333z"/>
<path style="fill:#76bcb8; stroke:none;" d="M326.667 521.333L327.333 521.667L326.667 521.333M578 521L578 522L581 522L578 521z"/>
<path style="fill:#aadce2; stroke:none;" d="M581 521L581 522L584 522L581 521M304 522L305 523L304 522M331 522L331 523L334 523L331 522z"/>
<path style="fill:#76bcb8; stroke:none;" d="M334 522L334 523L337 523L334 522M569.667 522.333L570.333 522.667L569.667 522.333z"/>
<path style="fill:#aadce2; stroke:none;" d="M571 522L571 523L574 523L571 522M341 523L341 524L344 524L341 523z"/>
<path style="fill:#76bcb8; stroke:none;" d="M344 523L344 524L347 524L344 523M558 523L558 524L562 524L558 523z"/>
<path style="fill:#aadce2; stroke:none;" d="M562 523L562 524L565 524L562 523M253 524L254 525L253 524M303 524L304 525L303 524M350 524L350 525L353 525L350 524z"/>
<path style="fill:#76bcb8; stroke:none;" d="M353 524L353 525L357 525L353 524M546 524L546 525L550 525L546 524z"/>
<path style="fill:#aadce2; stroke:none;" d="M550 524L550 525L553 525L550 524M362 525L362 526L366 526L362 525z"/>
<path style="fill:#76bcb8; stroke:none;" d="M366 525L366 526L370 526L366 525M534 525L534 526L538 526L534 525z"/>
<path style="fill:#aadce2; stroke:none;" d="M538 525L538 526L541 526L538 525M302 526L303 527L302 526M375 526L375 527L379 527L375 526z"/>
<path style="fill:#76bcb8; stroke:none;" d="M379 526L379 527L384 527L379 526M513 526L513 527L520 527L513 526z"/>
<path style="fill:#aadce2; stroke:none;" d="M520 526L520 527L527 527L520 526M293 529L296 527L293 529M394 527L394 528L402 528L394 527z"/>
<path style="fill:#76bcb8; stroke:none;" d="M402 527L402 528L411 528L402 527M483 527L483 528L498 528L483 527z"/>
<path style="fill:#aadce2; stroke:none;" d="M498 527L498 528L504 528L498 527M296 529L296 530L300 530L296 529M301 528L302 529L301 528M438 528L438 529L464 529L438 528M248 530L249 531L248 530M300 531L300 532L303 533L300 531M292 532L293 533L292 532M304 533L304 534L307 534L304 533M308 535L308 536L311 537L308 535M243 536L244 537L243 536M312 537L312 538L315 538L312 537M316 539L316 540L319 541L316 539M947.019 539.786C938.744 542.551 942.604 555.598 950.981 553.012C959.436 550.403 955.332 537.009 947.019 539.786M239 541L240 542L239 541M290 541L291 542L290 541M320 541L320 542L323 542L320 541M238 542L239 543L238 542M324 543L324 544L327 545L324 543M289 545L290 546L289 545M328 545L328 546L331 546L328 545M234 547L235 548L234 547M332 547L332 548L335 549L332 547M288 549L289 550L288 549M336 549L336 550L339 550L336 549M340 551L340 552L343 553L340 551M229 553L230 554L229 553M344 553L344 554L347 554L344 553M348 555L348 556L351 557L348 555M352 557L352 558L355 559L352 557M225 558L226 559L225 558M286 558L287 559L286 558M224 559L225 560L224 559M356 559L356 560L359 561L356 559z"/>
<path style="fill:#fefefe; stroke:none;" d="M258 560L259 561L258 560z"/>
<path style="fill:#aadce2; stroke:none;" d="M258 561L259 562L258 561M360 561L360 562L363 562L360 561M256 562L257 563L256 562M285 562L286 563L285 562M255 563L256 564L255 563M364 563L364 564L367 565L364 563M220 564L221 565L220 564M257 565L258 566L257 565M368 565L368 566L371 567L368 565M220 566L221 567L220 566M284 566L285 567L284 566M372 567L372 568L375 568L372 567M251 568L252 569L251 568M250 569L251 570L250 569M376 569L376 570L379 570L376 569M225 570L226 571L225 570M256 570L257 571L256 570M226 571L227 572L226 571M381.667 571.333L382.333 571.667L381.667 571.333M385.667 573.333L386.333 573.667L385.667 573.333M246 574L247 575L246 574M255 574L256 575L255 574M231 575L232 576L231 575M282 575L283 576L282 575M389.667 575.333L390.333 575.667L389.667 575.333M393.667 577.333L394.333 577.667L393.667 577.333M254 578L255 579L254 578M281 579L282 580L281 579M397.667 579.333L398.333 579.667L397.667 579.333M237 580L238 581L237 580M241 580L242 581L241 580M401.667 581.333L402.333 581.667L401.667 581.333M253 582L254 583L253 582M280 583L281 584L280 583M405.667 583.333L406.333 583.667L405.667 583.333M409.667 585.333L410.333 585.667L409.667 585.333M782.019 586.786C773.037 589.786 777.561 604.068 786.945 600.396C795.301 597.126 790.201 584.054 782.019 586.786M252 587L253 588L252 587M413.667 587.333L414.333 587.667L413.667 587.333M417.667 589.333L418.333 589.667L417.667 589.333M260 590L261 591L260 590M264 591L265 592L264 591M421.667 591.333L422.333 591.667L421.667 591.333M268 592L269 593L268 592M278 592L279 593L278 592M425.667 593.333L426.333 593.667L425.667 593.333M37 594L37 603L28 603L28 606L37 606L37 615L40 615C40.0808 608.167 42.1666 606.081 49 606L49 603C42.1666 602.919 40.0808 600.833 40 594L37 594M277 594L278 595L277 594M599 594C588.82 611.441 576.608 631.532 571 651L572 651L591.247 612L599 594M429.667 595.333L430.333 595.667L429.667 595.333M433.667 597.333L434.333 597.667L433.667 597.333M437.667 599.333L438.333 599.667L437.667 599.333M441.667 601.333L442.333 601.667L441.667 601.333M445 603L445 604L448 604L445 603M449.667 605.333L450.333 605.667L449.667 605.333M453.667 607.333L454.333 607.667L453.667 607.333M457.667 609.333L458.333 609.667L457.667 609.333M461 611L461 612L467 614L467 613L461 611M469.667 615.333L470.333 615.667L469.667 615.333M473.667 617.333L474.333 617.667L473.667 617.333M477 619L477 620L483 622L483 621L477 619M485 623L485 624L488 624L485 623M489.667 625.333L490.333 625.667L489.667 625.333M493 627L493 628L499 630L499 629L493 627M501 631L501 632L507 634L507 633L501 631M509 635L509 636L515 638L515 637L509 635M517 639L517 640L523 642L523 641L517 639M526 643L526 644L529 645L526 643M530 645L531 646L530 645M534 647L534 648L537 649L534 647M538 649L539 650L538 649M542 651L542 652L545 653L542 651M570 652L571 653L570 652M546 653L547 654L546 653M569 654L570 655L569 654M550 655L550 656L553 657L550 655M568 656L569 657L568 656M554 657L555 658L554 657M567 658L568 659L567 658M558 659L558 660L561 661L558 659M127.044 660.786C118.214 663.796 123.138 677.713 131.945 674.253C140.29 670.975 135.132 658.029 127.044 660.786M562 661L562 662L565 662L562 661M494 701L489 692C486.739 692.981 479.438 695.305 478.492 697.599C474.256 707.872 490.815 710.606 494 701M325.343 694.172C322.458 695.658 324.852 699.977 327.707 698.593C330.714 697.136 328.21 692.695 325.343 694.172z"/>
</svg>
